M48
;Layer_Color=9474304
;FILE_FORMAT=4:4
METRIC,LZ
;TYPE=PLATED
T01F00S00C0.7112
T02F00S00C0.8000
T03F00S00C0.9200
T04F00S00C1.0000
T05F00S00C1.1000
T06F00S00C1.2000
T07F00S00C1.3000
T08F00S00C2.3000
T09F00S00C2.5400
%
T01
X00772926Y0034183
X0081153Y0037846
X0086106Y0034417
X0091186Y0036957
X0100711Y0031369
X0105664Y0033528
X01213358Y00336804
X0128778Y0037719
X0127223Y0040005
X01269492Y00450596
X0125095Y0045974
X012065Y0046482
Y0042672
X01209294Y0040894
X01250442Y0052451
X0126365Y0057658
X0129667Y0060198
X0129921Y0066294
X0124968Y007239
X0130302Y0054102
X013589Y0042545
X0114935Y0046355
X0113157Y0044831
X0112268Y00485362
X0114681Y00494442
X0107569Y0049022
X0104394Y0050673
X0102616Y0052578
X0100711Y0054102
X0100457Y0056388
X00978884Y0057731
X0098171Y0053848
X0096901Y0050546
X0100203Y0047752
X009293Y00467468
X0089535Y0046536
X0086741
X0084963Y0044704
X009017Y0049657
X0090424Y0059563
X0081534Y0060579
X0080645Y0058185
X0097811Y0064664
X0101727Y0065913
X0101854Y0062484
X0105918Y0069215
X0107061Y0070993
X0111506Y0067945
X0113157Y005715
X0110871Y0056007
X0107442Y0055372
X0108712Y0042037
X0109982Y0040205
X0105029Y00428244
X0079248Y0052197
X0073279Y0064516
X0073025Y0072263
T02
X0084836Y0050673
Y0052673
X0117221Y0061722
Y0063722
T03
X0081804Y0063245
X0083804
X0086304
X0079304
T04
X007803Y0027722
Y0032222
Y0036612
X008453
Y0032222
Y0027722
Y0041112
X007803
T05
X0135255Y0027686
Y0030226
Y0032766
X0061722Y0041783
X0059182
Y0044323
Y0046863
Y0049403
X0061722
Y0046863
Y0044323
T06
X0070033Y0029083
X0073533
X0121666Y0029337
X0125166
T07
X0061849Y0027925
Y0031425
Y0034925
T08
X0089374Y0065955
X0076234
T09
X005588Y0027559
X0139192
Y0073152
X0055499
M30
