G04*
G04 #@! TF.GenerationSoftware,Altium Limited,Altium Designer,25.8.1 (18)*
G04*
G04 Layer_Color=8421504*
%FSLAX44Y44*%
%MOMM*%
G71*
G04*
G04 #@! TF.SameCoordinates,0AA87B99-36C4-491F-804F-3ED42A066D7D*
G04*
G04*
G04 #@! TF.FilePolarity,Positive*
G04*
G01*
G75*
%ADD16R,1.0500X0.6800*%
%ADD17R,0.5000X0.2600*%
%ADD18R,0.5000X0.2600*%
%ADD19R,1.0500X0.6800*%
%ADD20R,0.5000X0.5000*%
%ADD21R,1.3500X1.1000*%
%ADD22R,0.9500X1.3500*%
%ADD23R,1.0000X0.9000*%
%ADD24R,0.5500X1.0500*%
%ADD25R,1.5260X0.6500*%
%ADD26R,2.1500X0.9500*%
G04:AMPARAMS|DCode=27|XSize=0.23mm|YSize=0.8mm|CornerRadius=0.0254mm|HoleSize=0mm|Usage=FLASHONLY|Rotation=0.000|XOffset=0mm|YOffset=0mm|HoleType=Round|Shape=RoundedRectangle|*
%AMROUNDEDRECTD27*
21,1,0.2300,0.7492,0,0,0.0*
21,1,0.1792,0.8000,0,0,0.0*
1,1,0.0508,0.0896,-0.3746*
1,1,0.0508,-0.0896,-0.3746*
1,1,0.0508,-0.0896,0.3746*
1,1,0.0508,0.0896,0.3746*
%
%ADD27ROUNDEDRECTD27*%
%ADD28R,0.9500X1.4000*%
%ADD29R,0.6000X0.8000*%
%ADD30R,0.8000X0.4000*%
%ADD31R,0.6725X0.7154*%
%ADD32R,0.8000X0.9000*%
%ADD33R,1.0000X0.8000*%
%ADD34R,1.1000X1.3500*%
%ADD35R,0.6500X0.7000*%
%ADD36R,0.4000X1.3500*%
%ADD37R,0.6587X0.8121*%
%ADD38R,1.4000X0.9500*%
%ADD39R,2.1500X3.2500*%
%ADD40R,0.8000X0.8000*%
%ADD41R,1.2000X1.2000*%
%ADD42R,0.6000X0.7000*%
%ADD43R,0.4000X0.8000*%
%ADD44R,0.8121X0.6587*%
%ADD45R,1.2000X0.6000*%
%ADD46R,1.0587X1.0121*%
%ADD47R,1.9000X1.9000*%
%ADD48R,1.4500X1.3000*%
%ADD49R,1.6000X1.4000*%
%ADD50R,1.0000X1.8000*%
%ADD51R,0.9000X0.8000*%
G36*
X968070Y340030D02*
X980070D01*
Y334030D01*
X974070Y328030D01*
X968070D01*
Y340030D01*
D02*
G37*
D16*
X1076962Y595060D02*
D03*
X1064261D02*
D03*
D17*
X1086911Y593071D02*
D03*
X1054311D02*
D03*
D18*
X1086911Y588071D02*
D03*
X1054311D02*
D03*
D19*
X1076962Y586060D02*
D03*
X1064261D02*
D03*
D20*
X586330Y684530D02*
D03*
X608330D02*
D03*
D21*
X1257300Y425480D02*
D03*
Y411480D02*
D03*
X1173480Y370220D02*
D03*
Y356220D02*
D03*
D22*
X1187210Y504190D02*
D03*
X1172210D02*
D03*
D23*
X1339850Y608330D02*
D03*
X1321850D02*
D03*
D24*
X1284630Y438450D02*
D03*
X1303630D02*
D03*
Y412450D02*
D03*
X1284630D02*
D03*
X1294130D02*
D03*
D25*
X1228540Y434340D02*
D03*
X1174300D02*
D03*
X1228540Y408940D02*
D03*
X1174300Y421640D02*
D03*
Y447040D02*
D03*
Y408940D02*
D03*
X1228540Y447040D02*
D03*
Y421640D02*
D03*
D26*
X1036110Y694830D02*
D03*
Y671830D02*
D03*
Y648830D02*
D03*
D27*
X1080610Y575800D02*
D03*
X1060610Y605300D02*
D03*
X1075610Y575800D02*
D03*
X1060610D02*
D03*
X1080610Y605300D02*
D03*
X1075610D02*
D03*
X1070610D02*
D03*
X1065610D02*
D03*
Y575800D02*
D03*
X1070610D02*
D03*
D28*
X1096010Y283210D02*
D03*
X1316990Y688340D02*
D03*
X1319530Y646430D02*
D03*
X1339300Y575310D02*
D03*
X1077510Y283210D02*
D03*
X609600Y610870D02*
D03*
X608330Y650240D02*
D03*
X591100Y571500D02*
D03*
Y610870D02*
D03*
X589830Y650240D02*
D03*
X1335490Y688340D02*
D03*
X1338030Y646430D02*
D03*
X1320800Y575310D02*
D03*
X609600Y571500D02*
D03*
D29*
X1086000Y400050D02*
D03*
Y472440D02*
D03*
X1073000Y400050D02*
D03*
Y472440D02*
D03*
Y436880D02*
D03*
X1086000D02*
D03*
D30*
X1027570Y308030D02*
D03*
X887570Y384530D02*
D03*
Y367530D02*
D03*
Y376030D02*
D03*
Y359030D02*
D03*
X1027570Y299530D02*
D03*
Y291030D02*
D03*
X887570Y316530D02*
D03*
Y308030D02*
D03*
Y291030D02*
D03*
Y299530D02*
D03*
Y325030D02*
D03*
Y342030D02*
D03*
Y350530D02*
D03*
Y393030D02*
D03*
Y401530D02*
D03*
Y410030D02*
D03*
X1027570D02*
D03*
Y401530D02*
D03*
Y393030D02*
D03*
Y384530D02*
D03*
Y376030D02*
D03*
Y367530D02*
D03*
Y359030D02*
D03*
Y350530D02*
D03*
Y342030D02*
D03*
Y333530D02*
D03*
Y325030D02*
D03*
Y316530D02*
D03*
X887570Y333530D02*
D03*
D31*
X1277620Y499791D02*
D03*
Y490220D02*
D03*
D32*
X1352550Y507220D02*
D03*
Y490220D02*
D03*
D33*
X668020Y292340D02*
D03*
Y307340D02*
D03*
D34*
X1353820Y388620D02*
D03*
X1339820D02*
D03*
D35*
X1322540Y725170D02*
D03*
X1336040D02*
D03*
D36*
X1129450Y703500D02*
D03*
X1122950D02*
D03*
X1135950D02*
D03*
X1142450D02*
D03*
X1148950D02*
D03*
D37*
X1344513Y361950D02*
D03*
X1358047D02*
D03*
X1085414Y508000D02*
D03*
X1071880D02*
D03*
D38*
X1233170Y369020D02*
D03*
Y350520D02*
D03*
D39*
X978110Y671830D02*
D03*
D40*
X1027570Y420530D02*
D03*
X887570D02*
D03*
X1027570Y280530D02*
D03*
X887570D02*
D03*
D41*
X974070Y367030D02*
D03*
X941070D02*
D03*
X957570D02*
D03*
X974070Y350530D02*
D03*
X957570D02*
D03*
Y334030D02*
D03*
X941070Y350530D02*
D03*
Y334030D02*
D03*
D42*
X710590Y379570D02*
D03*
X729590D02*
D03*
X720090Y359570D02*
D03*
D43*
X966070Y280530D02*
D03*
X957570D02*
D03*
X1017070D02*
D03*
X1000070D02*
D03*
X1008570D02*
D03*
X991570D02*
D03*
X974570D02*
D03*
X983070D02*
D03*
X940570D02*
D03*
X949070D02*
D03*
X923570D02*
D03*
X932070D02*
D03*
X906570D02*
D03*
X915070D02*
D03*
X898070D02*
D03*
Y420530D02*
D03*
X906570D02*
D03*
X915070D02*
D03*
X923570D02*
D03*
X932070D02*
D03*
X940570D02*
D03*
X949070D02*
D03*
X957570D02*
D03*
X966070D02*
D03*
X974570D02*
D03*
X983070D02*
D03*
X991570D02*
D03*
X1000070D02*
D03*
X1008570D02*
D03*
X1017070D02*
D03*
D44*
X976630Y476250D02*
D03*
X955090Y489784D02*
D03*
Y476250D02*
D03*
X976630Y489784D02*
D03*
D45*
X949760Y572160D02*
D03*
Y591160D02*
D03*
Y581660D02*
D03*
X924760D02*
D03*
Y572160D02*
D03*
Y591160D02*
D03*
D46*
X683506Y722630D02*
D03*
X701040D02*
D03*
D47*
X1123950Y730250D02*
D03*
X1147950D02*
D03*
D48*
X1101700D02*
D03*
X1170200D02*
D03*
D49*
X1103950Y705750D02*
D03*
X1167950D02*
D03*
D50*
X587950Y723900D02*
D03*
X615950D02*
D03*
D51*
X701040Y665480D02*
D03*
X684040D02*
D03*
X1074420Y361950D02*
D03*
X1091420D02*
D03*
M02*
