G04*
G04 #@! TF.GenerationSoftware,Altium Limited,Altium Designer,25.8.1 (18)*
G04*
G04 Layer_Color=8388736*
%FSLAX44Y44*%
%MOMM*%
G71*
G04*
G04 #@! TF.SameCoordinates,0AA87B99-36C4-491F-804F-3ED42A066D7D*
G04*
G04*
G04 #@! TF.FilePolarity,Negative*
G04*
G01*
G75*
%ADD22R,0.9500X1.3500*%
%ADD23R,1.0000X0.9000*%
%ADD26R,2.1500X0.9500*%
%ADD28R,0.9500X1.4000*%
%ADD31R,0.6725X0.7154*%
%ADD32R,0.8000X0.9000*%
%ADD35R,0.6500X0.7000*%
%ADD37R,0.6587X0.8121*%
%ADD38R,1.4000X0.9500*%
%ADD39R,2.1500X3.2500*%
%ADD44R,0.8121X0.6587*%
%ADD46R,1.0587X1.0121*%
%ADD50R,1.0000X1.8000*%
%ADD51R,0.9000X0.8000*%
%ADD52R,1.5532X1.3032*%
%ADD53R,0.7532X1.2532*%
%ADD54R,1.7292X0.8532*%
G04:AMPARAMS|DCode=55|XSize=0.42mm|YSize=0.99mm|CornerRadius=0.1204mm|HoleSize=0mm|Usage=FLASHONLY|Rotation=0.000|XOffset=0mm|YOffset=0mm|HoleType=Round|Shape=RoundedRectangle|*
%AMROUNDEDRECTD55*
21,1,0.4200,0.7492,0,0,0.0*
21,1,0.1792,0.9900,0,0,0.0*
1,1,0.2408,0.0896,-0.3746*
1,1,0.2408,-0.0896,-0.3746*
1,1,0.2408,-0.0896,0.3746*
1,1,0.2408,0.0896,0.3746*
%
%ADD55ROUNDEDRECTD55*%
%ADD56R,0.8032X1.0032*%
%ADD57R,1.0032X0.6032*%
%ADD58R,1.2032X1.0032*%
%ADD59R,1.3032X1.5532*%
%ADD60R,0.6032X1.5532*%
%ADD61R,1.0032X1.0032*%
%ADD62R,1.4032X1.4032*%
%ADD63R,0.6000X0.6000*%
%ADD64R,0.8032X0.9032*%
%ADD65R,0.6032X1.0032*%
%ADD66R,1.4032X0.8032*%
G04:AMPARAMS|DCode=67|XSize=1.79mm|YSize=2.54mm|CornerRadius=0.1195mm|HoleSize=0mm|Usage=FLASHONLY|Rotation=270.000|XOffset=0mm|YOffset=0mm|HoleType=Round|Shape=RoundedRectangle|*
%AMROUNDEDRECTD67*
21,1,1.7900,2.3010,0,0,270.0*
21,1,1.5510,2.5400,0,0,270.0*
1,1,0.2390,-1.1505,-0.7755*
1,1,0.2390,-1.1505,0.7755*
1,1,0.2390,1.1505,0.7755*
1,1,0.2390,1.1505,-0.7755*
%
%ADD67ROUNDEDRECTD67*%
%ADD68R,2.1032X2.1032*%
%ADD69R,1.6532X1.5032*%
%ADD70R,1.8032X1.6032*%
%ADD71R,0.9032X0.4832*%
G04:AMPARAMS|DCode=72|XSize=1.7032mm|YSize=1.7032mm|CornerRadius=0.4766mm|HoleSize=0mm|Usage=FLASHONLY|Rotation=90.000|XOffset=0mm|YOffset=0mm|HoleType=Round|Shape=RoundedRectangle|*
%AMROUNDEDRECTD72*
21,1,1.7032,0.7500,0,0,90.0*
21,1,0.7500,1.7032,0,0,90.0*
1,1,0.9532,0.3750,0.3750*
1,1,0.9532,0.3750,-0.3750*
1,1,0.9532,-0.3750,-0.3750*
1,1,0.9532,-0.3750,0.3750*
%
%ADD72ROUNDEDRECTD72*%
%ADD73C,1.8032*%
G04:AMPARAMS|DCode=74|XSize=2.2032mm|YSize=2.2032mm|CornerRadius=0.6016mm|HoleSize=0mm|Usage=FLASHONLY|Rotation=0.000|XOffset=0mm|YOffset=0mm|HoleType=Round|Shape=RoundedRectangle|*
%AMROUNDEDRECTD74*
21,1,2.2032,1.0000,0,0,0.0*
21,1,1.0000,2.2032,0,0,0.0*
1,1,1.2032,0.5000,-0.5000*
1,1,1.2032,-0.5000,-0.5000*
1,1,1.2032,-0.5000,0.5000*
1,1,1.2032,0.5000,0.5000*
%
%ADD74ROUNDEDRECTD74*%
%ADD75C,2.2032*%
%ADD76R,2.2032X2.2032*%
%ADD77C,1.7032*%
%ADD78C,1.6532*%
%ADD79R,1.7032X1.7032*%
G04:AMPARAMS|DCode=80|XSize=2.1532mm|YSize=2.1532mm|CornerRadius=0.5891mm|HoleSize=0mm|Usage=FLASHONLY|Rotation=90.000|XOffset=0mm|YOffset=0mm|HoleType=Round|Shape=RoundedRectangle|*
%AMROUNDEDRECTD80*
21,1,2.1532,0.9750,0,0,90.0*
21,1,0.9750,2.1532,0,0,90.0*
1,1,1.1782,0.4875,0.4875*
1,1,1.1782,0.4875,-0.4875*
1,1,1.1782,-0.4875,-0.4875*
1,1,1.1782,-0.4875,0.4875*
%
%ADD80ROUNDEDRECTD80*%
%ADD81C,2.1532*%
%ADD82C,3.0032*%
%ADD83R,1.6532X1.6532*%
G04:AMPARAMS|DCode=84|XSize=1.8032mm|YSize=1.8032mm|CornerRadius=0.5016mm|HoleSize=0mm|Usage=FLASHONLY|Rotation=270.000|XOffset=0mm|YOffset=0mm|HoleType=Round|Shape=RoundedRectangle|*
%AMROUNDEDRECTD84*
21,1,1.8032,0.8000,0,0,270.0*
21,1,0.8000,1.8032,0,0,270.0*
1,1,1.0032,-0.4000,-0.4000*
1,1,1.0032,-0.4000,0.4000*
1,1,1.0032,0.4000,0.4000*
1,1,1.0032,0.4000,-0.4000*
%
%ADD84ROUNDEDRECTD84*%
%ADD85C,1.4732*%
%ADD86C,2.7432*%
G36*
X967070Y341030D02*
X981070D01*
Y333530D01*
X974570Y327030D01*
X967070D01*
Y341030D01*
D02*
G37*
D22*
X1187210Y504190D02*
D03*
X1172210D02*
D03*
D23*
X1339850Y608330D02*
D03*
X1321850D02*
D03*
D26*
X1036110Y694830D02*
D03*
Y671830D02*
D03*
Y648830D02*
D03*
D28*
X1096010Y283210D02*
D03*
X1316990Y688340D02*
D03*
X1319530Y646430D02*
D03*
X1339300Y575310D02*
D03*
X1077510Y283210D02*
D03*
X609600Y610870D02*
D03*
X608330Y650240D02*
D03*
X591100Y571500D02*
D03*
Y610870D02*
D03*
X589830Y650240D02*
D03*
X1335490Y688340D02*
D03*
X1338030Y646430D02*
D03*
X1320800Y575310D02*
D03*
X609600Y571500D02*
D03*
D31*
X1277620Y499791D02*
D03*
Y490220D02*
D03*
D32*
X1352550Y507220D02*
D03*
Y490220D02*
D03*
D35*
X1322540Y725170D02*
D03*
X1336040D02*
D03*
D37*
X1344513Y361950D02*
D03*
X1358047D02*
D03*
X1085414Y508000D02*
D03*
X1071880D02*
D03*
D38*
X1233170Y369020D02*
D03*
Y350520D02*
D03*
D39*
X978110Y671830D02*
D03*
D44*
X976630Y476250D02*
D03*
X955090Y489784D02*
D03*
Y476250D02*
D03*
X976630Y489784D02*
D03*
D46*
X683506Y722630D02*
D03*
X701040D02*
D03*
D50*
X587950Y723900D02*
D03*
X615950D02*
D03*
D51*
X701040Y665480D02*
D03*
X684040D02*
D03*
X1074420Y361950D02*
D03*
X1091420D02*
D03*
D52*
X1257300Y425480D02*
D03*
Y411480D02*
D03*
X1173480Y370220D02*
D03*
Y356220D02*
D03*
D53*
X1284630Y438450D02*
D03*
X1303630D02*
D03*
Y412450D02*
D03*
X1284630D02*
D03*
X1294130D02*
D03*
D54*
X1228540Y434340D02*
D03*
X1174300D02*
D03*
X1228540Y408940D02*
D03*
X1174300Y421640D02*
D03*
Y447040D02*
D03*
Y408940D02*
D03*
X1228540Y447040D02*
D03*
Y421640D02*
D03*
D55*
X1080610Y575800D02*
D03*
X1060610Y605300D02*
D03*
X1075610Y575800D02*
D03*
X1060610D02*
D03*
X1080610Y605300D02*
D03*
X1075610D02*
D03*
X1070610D02*
D03*
X1065610D02*
D03*
Y575800D02*
D03*
X1070610D02*
D03*
D56*
X1086000Y400050D02*
D03*
Y472440D02*
D03*
X1073000Y400050D02*
D03*
Y472440D02*
D03*
Y436880D02*
D03*
X1086000D02*
D03*
D57*
X1027570Y308030D02*
D03*
X887570Y384530D02*
D03*
Y367530D02*
D03*
Y376030D02*
D03*
Y359030D02*
D03*
X1027570Y299530D02*
D03*
Y291030D02*
D03*
X887570Y316530D02*
D03*
Y308030D02*
D03*
Y291030D02*
D03*
Y299530D02*
D03*
Y325030D02*
D03*
Y342030D02*
D03*
Y350530D02*
D03*
Y393030D02*
D03*
Y401530D02*
D03*
Y410030D02*
D03*
X1027570D02*
D03*
Y401530D02*
D03*
Y393030D02*
D03*
Y384530D02*
D03*
Y376030D02*
D03*
Y367530D02*
D03*
Y359030D02*
D03*
Y350530D02*
D03*
Y342030D02*
D03*
Y333530D02*
D03*
Y325030D02*
D03*
Y316530D02*
D03*
X887570Y333530D02*
D03*
D58*
X668020Y292340D02*
D03*
Y307340D02*
D03*
D59*
X1353820Y388620D02*
D03*
X1339820D02*
D03*
D60*
X1129450Y703500D02*
D03*
X1122950D02*
D03*
X1135950D02*
D03*
X1142450D02*
D03*
X1148950D02*
D03*
D61*
X1027570Y420530D02*
D03*
X887570D02*
D03*
X1027570Y280530D02*
D03*
X887570D02*
D03*
D62*
X974070Y367030D02*
D03*
X941070D02*
D03*
X957570D02*
D03*
X974070Y350530D02*
D03*
X957570D02*
D03*
Y334030D02*
D03*
X941070Y350530D02*
D03*
Y334030D02*
D03*
D63*
X608330Y684530D02*
D03*
X586330D02*
D03*
D64*
X710590Y379570D02*
D03*
X729590D02*
D03*
X720090Y359570D02*
D03*
D65*
X966070Y280530D02*
D03*
X957570D02*
D03*
X1017070D02*
D03*
X1000070D02*
D03*
X1008570D02*
D03*
X991570D02*
D03*
X974570D02*
D03*
X983070D02*
D03*
X940570D02*
D03*
X949070D02*
D03*
X923570D02*
D03*
X932070D02*
D03*
X906570D02*
D03*
X915070D02*
D03*
X898070D02*
D03*
Y420530D02*
D03*
X906570D02*
D03*
X915070D02*
D03*
X923570D02*
D03*
X932070D02*
D03*
X940570D02*
D03*
X949070D02*
D03*
X957570D02*
D03*
X966070D02*
D03*
X974570D02*
D03*
X983070D02*
D03*
X991570D02*
D03*
X1000070D02*
D03*
X1008570D02*
D03*
X1017070D02*
D03*
D66*
X949760Y572160D02*
D03*
Y591160D02*
D03*
Y581660D02*
D03*
X924760D02*
D03*
Y572160D02*
D03*
Y591160D02*
D03*
D67*
X1070610Y590550D02*
D03*
D68*
X1123950Y730250D02*
D03*
X1147950D02*
D03*
D69*
X1101700D02*
D03*
X1170200D02*
D03*
D70*
X1103950Y705750D02*
D03*
X1167950D02*
D03*
D71*
X1086109Y593091D02*
D03*
Y588090D02*
D03*
X1055109D02*
D03*
Y593091D02*
D03*
D72*
X1172210Y637220D02*
D03*
X848360Y526730D02*
D03*
D73*
X1352550Y276860D02*
D03*
Y302260D02*
D03*
D74*
X700330Y290830D02*
D03*
X1216660Y293370D02*
D03*
D75*
X735330Y290830D02*
D03*
X591820Y494030D02*
D03*
Y468630D02*
D03*
Y443230D02*
D03*
Y417830D02*
D03*
X617220Y494030D02*
D03*
Y468630D02*
D03*
Y443230D02*
D03*
X1251660Y293370D02*
D03*
D76*
X617220Y417830D02*
D03*
D77*
X1172210Y617220D02*
D03*
X848360Y506730D02*
D03*
X845300Y322220D02*
D03*
X780300Y366120D02*
D03*
X845300D02*
D03*
Y411120D02*
D03*
X780300Y277220D02*
D03*
Y322220D02*
D03*
D78*
X793040Y632450D02*
D03*
X838040D02*
D03*
X818040D02*
D03*
D79*
X780300Y411120D02*
D03*
X845300Y277220D02*
D03*
D80*
X618490Y279250D02*
D03*
D81*
Y314250D02*
D03*
Y349250D02*
D03*
D82*
X762340Y659550D02*
D03*
X893740D02*
D03*
D83*
X863040Y632450D02*
D03*
D84*
X1352550Y327660D02*
D03*
D85*
X1250442Y524510D02*
D03*
X1250950Y459740D02*
D03*
X1131570Y571500D02*
D03*
X1059180Y692150D02*
D03*
X1149350Y463550D02*
D03*
X1206500Y464820D02*
D03*
X1122680Y485362D02*
D03*
X1269492Y450596D02*
D03*
X811530Y378460D02*
D03*
X849630Y447040D02*
D03*
X1115060Y679450D02*
D03*
X978110Y646640D02*
D03*
X911860Y369570D02*
D03*
X861060Y344170D02*
D03*
X1099820Y402050D02*
D03*
X1002030Y477520D02*
D03*
X1007110Y313690D02*
D03*
X1026160Y525780D02*
D03*
X1146810Y494442D02*
D03*
X1263650Y576580D02*
D03*
X867410Y465360D02*
D03*
X929300Y467468D02*
D03*
X895350Y465360D02*
D03*
X806450Y581850D02*
D03*
X981710Y538480D02*
D03*
X1007110Y541020D02*
D03*
X1131570Y448310D02*
D03*
X1075690Y490220D02*
D03*
X1206500Y426720D02*
D03*
X1209294Y408940D02*
D03*
X1287780Y377190D02*
D03*
X1272230Y400050D02*
D03*
X901700Y496570D02*
D03*
X815340Y605790D02*
D03*
X792480Y521970D02*
D03*
X772926Y341830D02*
D03*
X1108710Y560070D02*
D03*
X1299210Y662940D02*
D03*
X1296670Y601980D02*
D03*
X1303020Y541020D02*
D03*
X978884Y577310D02*
D03*
X1004570Y563880D02*
D03*
X1074420Y553720D02*
D03*
X969010Y505460D02*
D03*
X1017270Y659130D02*
D03*
X1043940Y506730D02*
D03*
X1070610Y709930D02*
D03*
X1056640Y335280D02*
D03*
X1087120Y420370D02*
D03*
X1018540Y624840D02*
D03*
X904240Y595630D02*
D03*
X1358900Y425450D02*
D03*
X1249680Y723900D02*
D03*
X732790Y645160D02*
D03*
X730250Y722630D02*
D03*
X1213358Y336804D02*
D03*
X1050290Y428244D02*
D03*
D86*
X1391920Y731520D02*
D03*
X554990D02*
D03*
X1391920Y275590D02*
D03*
X558800D02*
D03*
M02*
