G04*
G04 #@! TF.GenerationSoftware,Altium Limited,Altium Designer,25.8.1 (18)*
G04*
G04 Layer_Color=65535*
%FSLAX44Y44*%
%MOMM*%
G71*
G04*
G04 #@! TF.SameCoordinates,0AA87B99-36C4-491F-804F-3ED42A066D7D*
G04*
G04*
G04 #@! TF.FilePolarity,Positive*
G04*
G01*
G75*
%ADD10C,0.2500*%
%ADD11C,0.2000*%
%ADD12C,0.1000*%
%ADD13C,0.5000*%
%ADD14C,0.2540*%
%ADD15C,0.1270*%
D10*
X768550Y411120D02*
G03*
X768550Y411120I-1250J0D01*
G01*
X1054110Y648580D02*
G03*
X1054110Y648580I-1250J0D01*
G01*
X859550Y277220D02*
G03*
X859550Y277220I-1250J0D01*
G01*
X1353800Y346360D02*
G03*
X1353800Y346360I-1250J0D01*
G01*
D11*
X1041070Y291030D02*
G03*
X1041070Y291030I-1000J0D01*
G01*
X730590Y387570D02*
G03*
X728590Y387570I-1000J0D01*
G01*
D02*
G03*
X730590Y387570I1000J0D01*
G01*
X875860Y516730D02*
G03*
X875860Y516730I-27500J0D01*
G01*
X1199710Y627220D02*
G03*
X1199710Y627220I-27500J0D01*
G01*
X1168710Y493440D02*
X1190710D01*
X1168710Y514940D02*
X1190710D01*
X1270258Y486644D02*
Y503368D01*
X1284982Y486644D02*
Y503368D01*
X1279380Y407200D02*
Y417700D01*
X1279630Y421200D02*
X1308630D01*
Y429700D01*
X1279630D02*
X1308630D01*
X1279630Y421200D02*
Y429700D01*
X682830Y255830D02*
X752830D01*
X682830Y328830D02*
X752830D01*
X682830Y255830D02*
Y328830D01*
X752830Y255830D02*
Y270830D01*
X758830D01*
Y277630D01*
X752830Y275330D02*
X758820Y277654D01*
X752830Y322330D02*
Y328830D01*
X758830Y314630D02*
Y324930D01*
X752830Y322330D02*
X758822Y324948D01*
X752830Y317230D02*
X758822Y314612D01*
X752830Y275330D02*
Y317230D01*
X577850Y401320D02*
Y510540D01*
Y401320D02*
X631190D01*
X577850Y510540D02*
X631190D01*
Y401320D02*
Y510540D01*
X782800Y377350D02*
Y399620D01*
X789020Y358620D02*
X836580D01*
X842800Y377350D02*
Y399890D01*
X791800Y418620D02*
X836580D01*
X589290Y261750D02*
X641690D01*
X578490D02*
X584290D01*
X583540Y257750D02*
X590040D01*
X583540D02*
X584290Y261750D01*
X589290D02*
X590040Y257750D01*
X646690Y261750D02*
X652490D01*
X640940Y257750D02*
X641690Y261750D01*
X646690D02*
X647440Y257750D01*
X640940D02*
X647440D01*
X578490Y366750D02*
X652490D01*
Y261750D02*
Y366750D01*
X578490Y261750D02*
Y366750D01*
X946590Y472956D02*
Y493078D01*
X963590Y472956D02*
Y493078D01*
X1344477Y490167D02*
Y507166D01*
X1360550Y490220D02*
Y507220D01*
X1185420Y452500D02*
X1217420D01*
Y403480D02*
Y452500D01*
X1185420Y403480D02*
X1217420D01*
X1185420D02*
Y452500D01*
X1166670Y453790D02*
X1181920D01*
X1053610Y602050D02*
Y607550D01*
Y573550D02*
Y579050D01*
X1087610Y573550D02*
Y579050D01*
Y602050D02*
Y607550D01*
X1086010D02*
X1087610D01*
X1053610D02*
X1055210D01*
X1053610Y573550D02*
X1055210D01*
X1086010D02*
X1087610D01*
X726090Y363070D02*
X734590D01*
Y373570D01*
X705590Y363070D02*
X714090D01*
X705590D02*
Y373570D01*
X1175950Y716750D02*
Y719750D01*
Y740750D02*
Y759750D01*
X1095950Y740750D02*
Y759750D01*
X1175950D01*
X1095950Y716750D02*
Y719750D01*
X1086010Y290460D02*
X1087510D01*
X1086010Y275960D02*
X1087510D01*
X762390Y622350D02*
X784740D01*
X762390D02*
Y638890D01*
X874540Y622350D02*
X893690D01*
Y638890D01*
X762390Y676390D02*
Y762350D01*
X893690D01*
Y676390D02*
Y762350D01*
X1025610Y638330D02*
Y640330D01*
Y657330D02*
Y663330D01*
Y680330D02*
Y686330D01*
Y703330D02*
Y705330D01*
X988610D02*
X1025610D01*
X988610Y638330D02*
Y651830D01*
Y691830D02*
Y705330D01*
Y638330D02*
X1025610D01*
X918760Y597660D02*
X930760D01*
X934260Y567160D02*
Y596160D01*
Y567160D02*
X940260D01*
Y596160D01*
X934260D02*
X940260D01*
X596700Y732900D02*
X607200D01*
X596700Y714900D02*
X607200D01*
X599600Y603620D02*
X601100D01*
X599600Y618120D02*
X601100D01*
X599600Y564250D02*
X601100D01*
X599600Y578750D02*
X601100D01*
X598330Y642990D02*
X599830D01*
X598330Y657490D02*
X599830D01*
X678213Y731691D02*
X706333D01*
X678213Y713569D02*
X706333D01*
X684040Y657480D02*
X701040D01*
X683986Y673553D02*
X700987D01*
X593080Y691280D02*
X601580D01*
X593080Y677780D02*
X601580D01*
X1323100Y600080D02*
X1338600D01*
X1323100Y616580D02*
X1338600D01*
X1328030Y653680D02*
X1329530D01*
X1328030Y639180D02*
X1329530D01*
X1325490Y695590D02*
X1326990D01*
X1325490Y681090D02*
X1326990D01*
X1320790Y717670D02*
X1337790D01*
X1320790Y732670D02*
X1337790D01*
X1329300Y568060D02*
X1330800D01*
X1329300Y582560D02*
X1330800D01*
X1341220Y370450D02*
X1361340D01*
X1341220Y353450D02*
X1361340D01*
X1240420Y359020D02*
Y360520D01*
X1225920Y359020D02*
Y360520D01*
X1269160Y277870D02*
Y319770D01*
X1275152Y317152D01*
X1269160Y324870D02*
X1275152Y327488D01*
X1275160Y317170D02*
Y327470D01*
X1269160Y324870D02*
Y331370D01*
Y277870D02*
X1275151Y280194D01*
X1275160Y273370D02*
Y280170D01*
X1269160Y273370D02*
X1275160D01*
X1269160Y258370D02*
Y273370D01*
X1199160Y258370D02*
Y331370D01*
X1269160D01*
X1199160Y258370D02*
X1269160D01*
X1074367Y370023D02*
X1091367D01*
X1074420Y353950D02*
X1091420D01*
X1068587Y516500D02*
X1088708D01*
X1068587Y499500D02*
X1088708D01*
X968130Y472957D02*
Y493078D01*
X985130Y472957D02*
Y493078D01*
X842800Y288720D02*
Y310990D01*
X789020Y329720D02*
X836580D01*
X782800Y288450D02*
Y310990D01*
X789020Y269720D02*
X833800D01*
X1339100Y262660D02*
X1366000D01*
Y341860D01*
X1339100D02*
X1366000D01*
X1339100Y262660D02*
Y341860D01*
D12*
X1086510Y611550D02*
G03*
X1086510Y611550I-500J0D01*
G01*
X1149450Y692754D02*
G03*
X1149450Y692754I-500J0D01*
G01*
D13*
X865540Y613850D02*
G03*
X865540Y613850I-2500J0D01*
G01*
D14*
X577850Y255270D02*
X760730D01*
X577850Y524510D02*
X760730D01*
Y255270D02*
Y524510D01*
X577850Y255270D02*
Y524510D01*
X1065530Y257810D02*
X1371600D01*
X1065530Y519430D02*
X1371600D01*
Y257810D02*
Y519430D01*
X1065530Y257810D02*
Y519430D01*
X576580Y551180D02*
X1371600D01*
X576580Y746760D02*
X1371600D01*
Y551180D02*
Y746760D01*
X576580Y551180D02*
Y746760D01*
X1262378Y388619D02*
X1264918Y391158D01*
Y396237D01*
X1262378Y398776D01*
X1252222D01*
X1249682Y396237D01*
Y391158D01*
X1252222Y388619D01*
X1262378Y383541D02*
X1264918Y381002D01*
Y375923D01*
X1262378Y373384D01*
X1252222D01*
X1249682Y375923D01*
Y381002D01*
X1252222Y383541D01*
X1262378D01*
X1212613Y510538D02*
X1210074Y513078D01*
X1204996D01*
X1202456Y510538D01*
Y500382D01*
X1204996Y497842D01*
X1210074D01*
X1212613Y500382D01*
X1217691Y497842D02*
X1222770D01*
X1220231D01*
Y513078D01*
X1217691Y510538D01*
X1230387D02*
X1232926Y513078D01*
X1238005D01*
X1240544Y510538D01*
Y500382D01*
X1238005Y497842D01*
X1232926D01*
X1230387Y500382D01*
Y510538D01*
X1270003Y477518D02*
X1267464Y480057D01*
X1262385D01*
X1259846Y477518D01*
Y467362D01*
X1262385Y464823D01*
X1267464D01*
X1270003Y467362D01*
X1275081Y464823D02*
X1280160D01*
X1277620D01*
Y480057D01*
X1275081Y477518D01*
X1297934Y464823D02*
X1287777D01*
X1297934Y474979D01*
Y477518D01*
X1295395Y480057D01*
X1290316D01*
X1287777Y477518D01*
X1315724Y447038D02*
Y431802D01*
X1323342D01*
X1325881Y434342D01*
Y436881D01*
X1323342Y439420D01*
X1315724D01*
X1323342D01*
X1325881Y441959D01*
Y444498D01*
X1323342Y447038D01*
X1315724D01*
X1330959Y444498D02*
X1333498Y447038D01*
X1338577D01*
X1341116Y444498D01*
Y434342D01*
X1338577Y431802D01*
X1333498D01*
X1330959Y434342D01*
Y444498D01*
X1071880Y543555D02*
Y528320D01*
X1082037D01*
X1087115D02*
Y538477D01*
X1092193Y543555D01*
X1097272Y538477D01*
Y528320D01*
Y535938D01*
X1087115D01*
X1112507Y541016D02*
X1109968Y543555D01*
X1104889D01*
X1102350Y541016D01*
Y538477D01*
X1104889Y535938D01*
X1109968D01*
X1112507Y533398D01*
Y530859D01*
X1109968Y528320D01*
X1104889D01*
X1102350Y530859D01*
X1127742Y543555D02*
X1117585D01*
Y528320D01*
X1127742D01*
X1117585Y535938D02*
X1122664D01*
X1132820Y528320D02*
Y543555D01*
X1140438D01*
X1142977Y541016D01*
Y535938D01*
X1140438Y533398D01*
X1132820D01*
X1137899D02*
X1142977Y528320D01*
X1163290D02*
Y543555D01*
X1170908D01*
X1173447Y541016D01*
Y535938D01*
X1170908Y533398D01*
X1163290D01*
X1168369D02*
X1173447Y528320D01*
X1188682Y543555D02*
X1178525D01*
Y528320D01*
X1188682D01*
X1178525Y535938D02*
X1183604D01*
X1203917Y541016D02*
X1201378Y543555D01*
X1196300D01*
X1193761Y541016D01*
Y530859D01*
X1196300Y528320D01*
X1201378D01*
X1203917Y530859D01*
X1219152Y543555D02*
X1208996D01*
Y528320D01*
X1219152D01*
X1208996Y535938D02*
X1214074D01*
X1224231Y543555D02*
X1229309D01*
X1226770D01*
Y528320D01*
X1224231D01*
X1229309D01*
X1236927Y543555D02*
Y533398D01*
X1242005Y528320D01*
X1247083Y533398D01*
Y543555D01*
X1262318D02*
X1252162D01*
Y528320D01*
X1262318D01*
X1252162Y535938D02*
X1257240D01*
X1267397Y528320D02*
Y543555D01*
X1275014D01*
X1277553Y541016D01*
Y535938D01*
X1275014Y533398D01*
X1267397D01*
X1272475D02*
X1277553Y528320D01*
X579120Y544825D02*
Y529590D01*
X589277D01*
X594355D02*
Y539747D01*
X599433Y544825D01*
X604512Y539747D01*
Y529590D01*
Y537207D01*
X594355D01*
X619747Y542286D02*
X617208Y544825D01*
X612129D01*
X609590Y542286D01*
Y539747D01*
X612129Y537207D01*
X617208D01*
X619747Y534668D01*
Y532129D01*
X617208Y529590D01*
X612129D01*
X609590Y532129D01*
X634982Y544825D02*
X624825D01*
Y529590D01*
X634982D01*
X624825Y537207D02*
X629904D01*
X640060Y529590D02*
Y544825D01*
X647678D01*
X650217Y542286D01*
Y537207D01*
X647678Y534668D01*
X640060D01*
X645139D02*
X650217Y529590D01*
X670530Y544825D02*
Y529590D01*
X678148D01*
X680687Y532129D01*
Y542286D01*
X678148Y544825D01*
X670530D01*
X685766Y529590D02*
Y544825D01*
X693383D01*
X695922Y542286D01*
Y537207D01*
X693383Y534668D01*
X685766D01*
X690844D02*
X695922Y529590D01*
X701001Y544825D02*
X706079D01*
X703540D01*
Y529590D01*
X701001D01*
X706079D01*
X713697Y544825D02*
Y534668D01*
X718775Y529590D01*
X723853Y534668D01*
Y544825D01*
X739088D02*
X728932D01*
Y529590D01*
X739088D01*
X728932Y537207D02*
X734010D01*
X744167Y529590D02*
Y544825D01*
X751784D01*
X754323Y542286D01*
Y537207D01*
X751784Y534668D01*
X744167D01*
X749245D02*
X754323Y529590D01*
X636273Y476244D02*
X651507D01*
Y468627D01*
X648968Y466087D01*
X643890D01*
X641351Y468627D01*
Y476244D01*
X636273Y461009D02*
X651507D01*
Y453392D01*
X648968Y450852D01*
X643890D01*
X641351Y453392D01*
Y461009D01*
X636273Y445774D02*
Y440696D01*
Y443235D01*
X651507D01*
X648968Y445774D01*
X967994Y730245D02*
Y717549D01*
X970533Y715010D01*
X975611D01*
X978151Y717549D01*
Y730245D01*
X983229Y727706D02*
X985768Y730245D01*
X990847D01*
X993386Y727706D01*
Y717549D01*
X990847Y715010D01*
X985768D01*
X983229Y717549D01*
Y727706D01*
X1102514Y463553D02*
Y478787D01*
X1110132D01*
X1112671Y476248D01*
Y471170D01*
X1110132Y468631D01*
X1102514D01*
X1107592D02*
X1112671Y463553D01*
X1117749Y466092D02*
X1120288Y463553D01*
X1125367D01*
X1127906Y466092D01*
Y476248D01*
X1125367Y478787D01*
X1120288D01*
X1117749Y476248D01*
Y473709D01*
X1120288Y471170D01*
X1127906D01*
X1109984Y392433D02*
Y407668D01*
X1117602D01*
X1120141Y405128D01*
Y400050D01*
X1117602Y397511D01*
X1109984D01*
X1115062D02*
X1120141Y392433D01*
X1135376Y407668D02*
X1130297Y405128D01*
X1125219Y400050D01*
Y394972D01*
X1127758Y392433D01*
X1132837D01*
X1135376Y394972D01*
Y397511D01*
X1132837Y400050D01*
X1125219D01*
X1303877Y354333D02*
Y369567D01*
X1311495D01*
X1314034Y367028D01*
Y361950D01*
X1311495Y359411D01*
X1303877D01*
X1308955D02*
X1314034Y354333D01*
X1329269Y369567D02*
X1319112D01*
Y361950D01*
X1324191Y364489D01*
X1326730D01*
X1329269Y361950D01*
Y356872D01*
X1326730Y354333D01*
X1321651D01*
X1319112Y356872D01*
X1101928Y500382D02*
Y515617D01*
X1109546D01*
X1112085Y513078D01*
Y508000D01*
X1109546Y505461D01*
X1101928D01*
X1107007D02*
X1112085Y500382D01*
X1124781D02*
Y515617D01*
X1117163Y508000D01*
X1127320D01*
X1106664Y355602D02*
Y370838D01*
X1114282D01*
X1116821Y368298D01*
Y363220D01*
X1114282Y360681D01*
X1106664D01*
X1111743D02*
X1116821Y355602D01*
X1121899Y368298D02*
X1124439Y370838D01*
X1129517D01*
X1132056Y368298D01*
Y365759D01*
X1129517Y363220D01*
X1126978D01*
X1129517D01*
X1132056Y360681D01*
Y358142D01*
X1129517Y355602D01*
X1124439D01*
X1121899Y358142D01*
X1098554Y427993D02*
Y443228D01*
X1106172D01*
X1108711Y440688D01*
Y435610D01*
X1106172Y433071D01*
X1098554D01*
X1103633D02*
X1108711Y427993D01*
X1113789Y440688D02*
X1116328Y443228D01*
X1121407D01*
X1123946Y440688D01*
Y430532D01*
X1121407Y427993D01*
X1116328D01*
X1113789Y430532D01*
Y440688D01*
X1314451Y394968D02*
X1311912Y397508D01*
X1306833D01*
X1304294Y394968D01*
Y384812D01*
X1306833Y382272D01*
X1311912D01*
X1314451Y384812D01*
X1329686Y397508D02*
X1324608Y394968D01*
X1319529Y389890D01*
Y384812D01*
X1322068Y382272D01*
X1327147D01*
X1329686Y384812D01*
Y387351D01*
X1327147Y389890D01*
X1319529D01*
X1052830Y635503D02*
Y622807D01*
X1055369Y620268D01*
X1060447D01*
X1062987Y622807D01*
Y635503D01*
X1068065Y620268D02*
X1073143D01*
X1070604D01*
Y635503D01*
X1068065Y632964D01*
X1122681Y289558D02*
X1120142Y292097D01*
X1115063D01*
X1112524Y289558D01*
Y279402D01*
X1115063Y276863D01*
X1120142D01*
X1122681Y279402D01*
X1127759Y289558D02*
X1130298Y292097D01*
X1135377D01*
X1137916Y289558D01*
Y287019D01*
X1135377Y284480D01*
X1137916Y281941D01*
Y279402D01*
X1135377Y276863D01*
X1130298D01*
X1127759Y279402D01*
Y281941D01*
X1130298Y284480D01*
X1127759Y287019D01*
Y289558D01*
X1130298Y284480D02*
X1135377D01*
X1202692Y367031D02*
X1200153Y364492D01*
Y359413D01*
X1202692Y356874D01*
X1212848D01*
X1215387Y359413D01*
Y364492D01*
X1212848Y367031D01*
X1200153Y372109D02*
Y382266D01*
X1202692D01*
X1212848Y372109D01*
X1215387D01*
X1336044Y464823D02*
Y480057D01*
X1343662D01*
X1346201Y477518D01*
Y472440D01*
X1343662Y469901D01*
X1336044D01*
X1341122D02*
X1346201Y464823D01*
X1351279Y480057D02*
X1361436D01*
Y477518D01*
X1351279Y467362D01*
Y464823D01*
X1109989Y791208D02*
Y778512D01*
X1112528Y775973D01*
X1117607D01*
X1120146Y778512D01*
Y791208D01*
X1135381Y788668D02*
X1132842Y791208D01*
X1127763D01*
X1125224Y788668D01*
Y786129D01*
X1127763Y783590D01*
X1132842D01*
X1135381Y781051D01*
Y778512D01*
X1132842Y775973D01*
X1127763D01*
X1125224Y778512D01*
X1140459Y791208D02*
Y775973D01*
X1148077D01*
X1150616Y778512D01*
Y781051D01*
X1148077Y783590D01*
X1140459D01*
X1148077D01*
X1150616Y786129D01*
Y788668D01*
X1148077Y791208D01*
X1140459D01*
X1165851Y775973D02*
X1155694D01*
X1165851Y786129D01*
Y788668D01*
X1163312Y791208D01*
X1158233D01*
X1155694Y788668D01*
X805188Y791208D02*
Y778512D01*
X807727Y775973D01*
X812806D01*
X815345Y778512D01*
Y791208D01*
X830580Y788668D02*
X828041Y791208D01*
X822962D01*
X820423Y788668D01*
Y786129D01*
X822962Y783590D01*
X828041D01*
X830580Y781051D01*
Y778512D01*
X828041Y775973D01*
X822962D01*
X820423Y778512D01*
X835658Y791208D02*
Y775973D01*
X843276D01*
X845815Y778512D01*
Y781051D01*
X843276Y783590D01*
X835658D01*
X843276D01*
X845815Y786129D01*
Y788668D01*
X843276Y791208D01*
X835658D01*
X850893Y775973D02*
X855972D01*
X853433D01*
Y791208D01*
X850893Y788668D01*
X798831Y500058D02*
X796292Y502598D01*
X791213D01*
X788674Y500058D01*
Y489902D01*
X791213Y487362D01*
X796292D01*
X798831Y489902D01*
X803909D02*
X806448Y487362D01*
X811527D01*
X814066Y489902D01*
Y500058D01*
X811527Y502598D01*
X806448D01*
X803909Y500058D01*
Y497519D01*
X806448Y494980D01*
X814066D01*
X640081Y386077D02*
X635003D01*
X637542D01*
Y373382D01*
X635003Y370843D01*
X632463D01*
X629924Y373382D01*
X655316Y370843D02*
X645159D01*
X655316Y380999D01*
Y383538D01*
X652777Y386077D01*
X647698D01*
X645159Y383538D01*
X722630Y349248D02*
X717552D01*
X720091D01*
Y336552D01*
X717552Y334012D01*
X715013D01*
X712473Y336552D01*
X727708Y334012D02*
X732787D01*
X730248D01*
Y349248D01*
X727708Y346708D01*
X1174191Y304797D02*
X1169113D01*
X1171652D01*
Y292102D01*
X1169113Y289562D01*
X1166573D01*
X1164034Y292102D01*
X1179269Y302258D02*
X1181809Y304797D01*
X1186887D01*
X1189426Y302258D01*
Y292102D01*
X1186887Y289562D01*
X1181809D01*
X1179269Y292102D01*
Y302258D01*
X1162053Y342898D02*
X1159514Y345438D01*
X1154435D01*
X1151896Y342898D01*
Y332742D01*
X1154435Y330202D01*
X1159514D01*
X1162053Y332742D01*
X1167131Y330202D02*
X1172210D01*
X1169670D01*
Y345438D01*
X1167131Y342898D01*
X1179827D02*
X1182366Y345438D01*
X1187445D01*
X1189984Y342898D01*
Y340359D01*
X1187445Y337820D01*
X1184905D01*
X1187445D01*
X1189984Y335281D01*
Y332742D01*
X1187445Y330202D01*
X1182366D01*
X1179827Y332742D01*
X660403Y359644D02*
X675638D01*
Y352026D01*
X673098Y349487D01*
X668020D01*
X665481Y352026D01*
Y359644D01*
Y354565D02*
X660403Y349487D01*
Y344408D02*
Y339330D01*
Y341869D01*
X675638D01*
X673098Y344408D01*
X660403Y321556D02*
Y331713D01*
X670559Y321556D01*
X673098D01*
X675638Y324095D01*
Y329174D01*
X673098Y331713D01*
X676915Y689613D02*
Y704847D01*
X684533D01*
X687072Y702308D01*
Y697230D01*
X684533Y694691D01*
X676915D01*
X681994D02*
X687072Y689613D01*
X692150D02*
X697229D01*
X694690D01*
Y704847D01*
X692150Y702308D01*
X704846Y689613D02*
X709925D01*
X707385D01*
Y704847D01*
X704846Y702308D01*
X676916Y632463D02*
Y647698D01*
X684534D01*
X687073Y645158D01*
Y640080D01*
X684534Y637541D01*
X676916D01*
X681994D02*
X687073Y632463D01*
X692151D02*
X697230D01*
X694690D01*
Y647698D01*
X692151Y645158D01*
X704847D02*
X707386Y647698D01*
X712465D01*
X715004Y645158D01*
Y635002D01*
X712465Y632463D01*
X707386D01*
X704847Y635002D01*
Y645158D01*
X980444Y499113D02*
Y514347D01*
X988062D01*
X990601Y511808D01*
Y506730D01*
X988062Y504191D01*
X980444D01*
X985523D02*
X990601Y499113D01*
X995679Y511808D02*
X998218Y514347D01*
X1003297D01*
X1005836Y511808D01*
Y509269D01*
X1003297Y506730D01*
X1005836Y504191D01*
Y501652D01*
X1003297Y499113D01*
X998218D01*
X995679Y501652D01*
Y504191D01*
X998218Y506730D01*
X995679Y509269D01*
Y511808D01*
X998218Y506730D02*
X1003297D01*
X932184Y499113D02*
Y514347D01*
X939802D01*
X942341Y511808D01*
Y506730D01*
X939802Y504191D01*
X932184D01*
X937262D02*
X942341Y499113D01*
X957576D02*
X947419D01*
X957576Y509269D01*
Y511808D01*
X955037Y514347D01*
X949958D01*
X947419Y511808D01*
X1215392Y649918D02*
X1212853Y652458D01*
X1207775D01*
X1205235Y649918D01*
Y639762D01*
X1207775Y637222D01*
X1212853D01*
X1215392Y639762D01*
X1220470Y637222D02*
X1225549D01*
X1223010D01*
Y652458D01*
X1220470Y649918D01*
X1233166Y637222D02*
X1238245D01*
X1235705D01*
Y652458D01*
X1233166Y649918D01*
X1274683Y730248D02*
X1272144Y732787D01*
X1267066D01*
X1264526Y730248D01*
Y720092D01*
X1267066Y717552D01*
X1272144D01*
X1274683Y720092D01*
X1279761Y717552D02*
X1284840D01*
X1282301D01*
Y732787D01*
X1279761Y730248D01*
X1302614Y732787D02*
X1292457D01*
Y725170D01*
X1297536Y727709D01*
X1300075D01*
X1302614Y725170D01*
Y720092D01*
X1300075Y717552D01*
X1294996D01*
X1292457Y720092D01*
X643890Y731517D02*
X633733D01*
Y723900D01*
X638812D01*
X633733D01*
Y716283D01*
X648968D02*
X654047D01*
X651508D01*
Y731517D01*
X648968Y728978D01*
X621463Y693418D02*
Y678183D01*
X629081D01*
X631620Y680722D01*
Y690878D01*
X629081Y693418D01*
X621463D01*
X636698Y678183D02*
X641777D01*
X639238D01*
Y693418D01*
X636698Y690878D01*
X924565Y619758D02*
X922026Y622298D01*
X916947D01*
X914408Y619758D01*
Y609602D01*
X916947Y607062D01*
X922026D01*
X924565Y609602D01*
X929643Y622298D02*
Y607062D01*
X939800D01*
X955035Y619758D02*
X952496Y622298D01*
X947418D01*
X944878Y619758D01*
Y617219D01*
X947418Y614680D01*
X952496D01*
X955035Y612141D01*
Y609602D01*
X952496Y607062D01*
X947418D01*
X944878Y609602D01*
X960113Y607062D02*
X965192D01*
X962653D01*
Y622298D01*
X960113Y619758D01*
X1164213Y474851D02*
Y462155D01*
X1166752Y459616D01*
X1171831D01*
X1174370Y462155D01*
Y474851D01*
X1189605Y459616D02*
X1179448D01*
X1189605Y469772D01*
Y472311D01*
X1187066Y474851D01*
X1181987D01*
X1179448Y472311D01*
X782331Y426722D02*
Y441958D01*
X789948D01*
X792487Y439418D01*
Y434340D01*
X789948Y431801D01*
X782331D01*
X787409D02*
X792487Y426722D01*
X805183D02*
X800105D01*
X797566Y429262D01*
Y434340D01*
X800105Y436879D01*
X805183D01*
X807722Y434340D01*
Y431801D01*
X797566D01*
X812801Y426722D02*
X820418D01*
X822958Y429262D01*
X820418Y431801D01*
X815340D01*
X812801Y434340D01*
X815340Y436879D01*
X822958D01*
X835653Y426722D02*
X830575D01*
X828036Y429262D01*
Y434340D01*
X830575Y436879D01*
X835653D01*
X838193Y434340D01*
Y431801D01*
X828036D01*
X845810Y439418D02*
Y436879D01*
X843271D01*
X848349D01*
X845810D01*
Y429262D01*
X848349Y426722D01*
X1272543Y600713D02*
Y615947D01*
X1280161D01*
X1282700Y613408D01*
Y608330D01*
X1280161Y605791D01*
X1272543D01*
X1277622D02*
X1282700Y600713D01*
X1287778D02*
X1292857D01*
X1290318D01*
Y615947D01*
X1287778Y613408D01*
X1333497Y293374D02*
X1318262D01*
Y300992D01*
X1320802Y303531D01*
X1325880D01*
X1328419Y300992D01*
Y293374D01*
X1320802Y308609D02*
X1318262Y311148D01*
Y316227D01*
X1320802Y318766D01*
X1330958D01*
X1333497Y316227D01*
Y311148D01*
X1330958Y308609D01*
X1320802D01*
X693224Y395987D02*
Y411222D01*
X703381Y395987D01*
Y411222D01*
X708459Y395987D02*
Y411222D01*
X713537Y406144D01*
X718616Y411222D01*
Y395987D01*
X731312Y411222D02*
X726233D01*
X723694Y408683D01*
Y398527D01*
X726233Y395987D01*
X731312D01*
X733851Y398527D01*
Y408683D01*
X731312Y411222D01*
X749086Y408683D02*
X746547Y411222D01*
X741468D01*
X738929Y408683D01*
Y406144D01*
X741468Y403605D01*
X746547D01*
X749086Y401066D01*
Y398527D01*
X746547Y395987D01*
X741468D01*
X738929Y398527D01*
X878867Y457197D02*
X868710D01*
Y441963D01*
X878867D01*
X868710Y449580D02*
X873788D01*
X894102Y454658D02*
X891563Y457197D01*
X886484D01*
X883945Y454658D01*
Y452119D01*
X886484Y449580D01*
X891563D01*
X894102Y447041D01*
Y444502D01*
X891563Y441963D01*
X886484D01*
X883945Y444502D01*
X899180Y441963D02*
Y457197D01*
X906798D01*
X909337Y454658D01*
Y449580D01*
X906798Y447041D01*
X899180D01*
X914415Y454658D02*
X916954Y457197D01*
X922033D01*
X924572Y454658D01*
Y452119D01*
X922033Y449580D01*
X919494D01*
X922033D01*
X924572Y447041D01*
Y444502D01*
X922033Y441963D01*
X916954D01*
X914415Y444502D01*
X939807Y441963D02*
X929650D01*
X939807Y452119D01*
Y454658D01*
X937268Y457197D01*
X932189D01*
X929650Y454658D01*
X944885Y449580D02*
X955042D01*
X970277Y454658D02*
X967738Y457197D01*
X962660D01*
X960120Y454658D01*
Y452119D01*
X962660Y449580D01*
X967738D01*
X970277Y447041D01*
Y444502D01*
X967738Y441963D01*
X962660D01*
X960120Y444502D01*
X975356Y454658D02*
X977895Y457197D01*
X982973D01*
X985512Y454658D01*
Y452119D01*
X982973Y449580D01*
X980434D01*
X982973D01*
X985512Y447041D01*
Y444502D01*
X982973Y441963D01*
X977895D01*
X975356Y444502D01*
X990591Y449580D02*
X1000747D01*
X1005826Y441963D02*
Y457197D01*
X1010904Y452119D01*
X1015982Y457197D01*
Y441963D01*
X1021061Y457197D02*
X1026139D01*
X1023600D01*
Y441963D01*
X1021061D01*
X1026139D01*
X1033757D02*
Y457197D01*
X1043913Y441963D01*
Y457197D01*
X1048992D02*
X1054070D01*
X1051531D01*
Y441963D01*
X1048992D01*
X1054070D01*
X1267463Y693418D02*
X1264924Y695957D01*
X1259845D01*
X1257306Y693418D01*
Y683262D01*
X1259845Y680723D01*
X1264924D01*
X1267463Y683262D01*
X1272541Y680723D02*
X1277620D01*
X1275080D01*
Y695957D01*
X1272541Y693418D01*
X1292855Y680723D02*
Y695957D01*
X1285237Y688340D01*
X1295394D01*
X1278891Y651508D02*
X1276352Y654047D01*
X1271273D01*
X1268734Y651508D01*
Y641352D01*
X1271273Y638812D01*
X1276352D01*
X1278891Y641352D01*
X1294126Y654047D02*
X1283969D01*
Y646430D01*
X1289048Y648969D01*
X1291587D01*
X1294126Y646430D01*
Y641352D01*
X1291587Y638812D01*
X1286508D01*
X1283969Y641352D01*
X1280161Y579118D02*
X1277622Y581657D01*
X1272543D01*
X1270004Y579118D01*
Y568962D01*
X1272543Y566423D01*
X1277622D01*
X1280161Y568962D01*
X1292857Y566423D02*
Y581657D01*
X1285239Y574040D01*
X1295396D01*
X633731Y655318D02*
X631192Y657858D01*
X626113D01*
X623574Y655318D01*
Y645162D01*
X626113Y642623D01*
X631192D01*
X633731Y645162D01*
X638809Y655318D02*
X641348Y657858D01*
X646427D01*
X648966Y655318D01*
Y652779D01*
X646427Y650240D01*
X643887D01*
X646427D01*
X648966Y647701D01*
Y645162D01*
X646427Y642623D01*
X641348D01*
X638809Y645162D01*
X636271Y574038D02*
X633732Y576577D01*
X628653D01*
X626114Y574038D01*
Y563882D01*
X628653Y561343D01*
X633732D01*
X636271Y563882D01*
X651506Y561343D02*
X641349D01*
X651506Y571499D01*
Y574038D01*
X648967Y576577D01*
X643888D01*
X641349Y574038D01*
X635000Y615948D02*
X632461Y618488D01*
X627383D01*
X624843Y615948D01*
Y605792D01*
X627383Y603252D01*
X632461D01*
X635000Y605792D01*
X640078Y603252D02*
X645157D01*
X642618D01*
Y618488D01*
X640078Y615948D01*
X786138Y351787D02*
Y336553D01*
X793756D01*
X796295Y339092D01*
Y341631D01*
X793756Y344170D01*
X786138D01*
X793756D01*
X796295Y346709D01*
Y349248D01*
X793756Y351787D01*
X786138D01*
X803913Y336553D02*
X808991D01*
X811530Y339092D01*
Y344170D01*
X808991Y346709D01*
X803913D01*
X801373Y344170D01*
Y339092D01*
X803913Y336553D01*
X819148D02*
X824226D01*
X826765Y339092D01*
Y344170D01*
X824226Y346709D01*
X819148D01*
X816608Y344170D01*
Y339092D01*
X819148Y336553D01*
X834383Y349248D02*
Y346709D01*
X831843D01*
X836922D01*
X834383D01*
Y339092D01*
X836922Y336553D01*
D15*
X880370Y415230D02*
Y427730D01*
Y273330D02*
Y285830D01*
X1034770Y273330D02*
Y285830D01*
Y415230D02*
Y427730D01*
X880370Y273330D02*
X892870D01*
X1022270D02*
X1034770D01*
X1022270Y427730D02*
X1034770D01*
X880370D02*
X892870D01*
X825582Y539750D02*
Y546414D01*
X822249Y543082D02*
X828914D01*
X1172212Y657720D02*
Y664384D01*
X1168879Y661052D02*
X1175544D01*
M02*
