G04*
G04 #@! TF.GenerationSoftware,Altium Limited,Altium Designer,25.8.1 (18)*
G04*
G04 Layer_Color=16711935*
%FSLAX44Y44*%
%MOMM*%
G71*
G04*
G04 #@! TF.SameCoordinates,0AA87B99-36C4-491F-804F-3ED42A066D7D*
G04*
G04*
G04 #@! TF.FilePolarity,Negative*
G04*
G01*
G75*
G04:AMPARAMS|DCode=72|XSize=1.7032mm|YSize=1.7032mm|CornerRadius=0.4766mm|HoleSize=0mm|Usage=FLASHONLY|Rotation=90.000|XOffset=0mm|YOffset=0mm|HoleType=Round|Shape=RoundedRectangle|*
%AMROUNDEDRECTD72*
21,1,1.7032,0.7500,0,0,90.0*
21,1,0.7500,1.7032,0,0,90.0*
1,1,0.9532,0.3750,0.3750*
1,1,0.9532,0.3750,-0.3750*
1,1,0.9532,-0.3750,-0.3750*
1,1,0.9532,-0.3750,0.3750*
%
%ADD72ROUNDEDRECTD72*%
%ADD73C,1.8032*%
G04:AMPARAMS|DCode=74|XSize=2.2032mm|YSize=2.2032mm|CornerRadius=0.6016mm|HoleSize=0mm|Usage=FLASHONLY|Rotation=0.000|XOffset=0mm|YOffset=0mm|HoleType=Round|Shape=RoundedRectangle|*
%AMROUNDEDRECTD74*
21,1,2.2032,1.0000,0,0,0.0*
21,1,1.0000,2.2032,0,0,0.0*
1,1,1.2032,0.5000,-0.5000*
1,1,1.2032,-0.5000,-0.5000*
1,1,1.2032,-0.5000,0.5000*
1,1,1.2032,0.5000,0.5000*
%
%ADD74ROUNDEDRECTD74*%
%ADD75C,2.2032*%
%ADD76R,2.2032X2.2032*%
%ADD77C,1.7032*%
%ADD78C,1.6532*%
%ADD79R,1.7032X1.7032*%
G04:AMPARAMS|DCode=80|XSize=2.1532mm|YSize=2.1532mm|CornerRadius=0.5891mm|HoleSize=0mm|Usage=FLASHONLY|Rotation=90.000|XOffset=0mm|YOffset=0mm|HoleType=Round|Shape=RoundedRectangle|*
%AMROUNDEDRECTD80*
21,1,2.1532,0.9750,0,0,90.0*
21,1,0.9750,2.1532,0,0,90.0*
1,1,1.1782,0.4875,0.4875*
1,1,1.1782,0.4875,-0.4875*
1,1,1.1782,-0.4875,-0.4875*
1,1,1.1782,-0.4875,0.4875*
%
%ADD80ROUNDEDRECTD80*%
%ADD81C,2.1532*%
%ADD82C,3.0032*%
%ADD83R,1.6532X1.6532*%
G04:AMPARAMS|DCode=84|XSize=1.8032mm|YSize=1.8032mm|CornerRadius=0.5016mm|HoleSize=0mm|Usage=FLASHONLY|Rotation=270.000|XOffset=0mm|YOffset=0mm|HoleType=Round|Shape=RoundedRectangle|*
%AMROUNDEDRECTD84*
21,1,1.8032,0.8000,0,0,270.0*
21,1,0.8000,1.8032,0,0,270.0*
1,1,1.0032,-0.4000,-0.4000*
1,1,1.0032,-0.4000,0.4000*
1,1,1.0032,0.4000,0.4000*
1,1,1.0032,0.4000,-0.4000*
%
%ADD84ROUNDEDRECTD84*%
%ADD85C,1.4732*%
%ADD86C,2.7432*%
D72*
X1172210Y637220D02*
D03*
X848360Y526730D02*
D03*
D73*
X1352550Y276860D02*
D03*
Y302260D02*
D03*
D74*
X700330Y290830D02*
D03*
X1216660Y293370D02*
D03*
D75*
X735330Y290830D02*
D03*
X591820Y494030D02*
D03*
Y468630D02*
D03*
Y443230D02*
D03*
Y417830D02*
D03*
X617220Y494030D02*
D03*
Y468630D02*
D03*
Y443230D02*
D03*
X1251660Y293370D02*
D03*
D76*
X617220Y417830D02*
D03*
D77*
X1172210Y617220D02*
D03*
X848360Y506730D02*
D03*
X845300Y366120D02*
D03*
Y411120D02*
D03*
X780300Y277220D02*
D03*
Y322220D02*
D03*
D78*
X793040Y632450D02*
D03*
X838040D02*
D03*
X818040D02*
D03*
D79*
X780300Y411120D02*
D03*
X845300Y277220D02*
D03*
D80*
X618490Y279250D02*
D03*
D81*
Y314250D02*
D03*
Y349250D02*
D03*
D82*
X762340Y659550D02*
D03*
X893740D02*
D03*
D83*
X863040Y632450D02*
D03*
D84*
X1352550Y327660D02*
D03*
D85*
X1250442Y524510D02*
D03*
X1250950Y459740D02*
D03*
X1131570Y571500D02*
D03*
X1059180Y692150D02*
D03*
X1149350Y463550D02*
D03*
X1206500Y464820D02*
D03*
X1122680Y485362D02*
D03*
X1269492Y450596D02*
D03*
X811530Y378460D02*
D03*
X849630Y447040D02*
D03*
X1115060Y679450D02*
D03*
X978110Y646640D02*
D03*
X911860Y369570D02*
D03*
X861060Y344170D02*
D03*
X1099820Y402050D02*
D03*
X1002030Y477520D02*
D03*
X1007110Y313690D02*
D03*
X1026160Y525780D02*
D03*
X1146810Y494442D02*
D03*
X1263650Y576580D02*
D03*
X867410Y465360D02*
D03*
X929300Y467468D02*
D03*
X895350Y465360D02*
D03*
X806450Y581850D02*
D03*
X981710Y538480D02*
D03*
X1007110Y541020D02*
D03*
X1131570Y448310D02*
D03*
X1075690Y490220D02*
D03*
X1206500Y426720D02*
D03*
X1209294Y408940D02*
D03*
X1287780Y377190D02*
D03*
X1272230Y400050D02*
D03*
X901700Y496570D02*
D03*
X815340Y605790D02*
D03*
X792480Y521970D02*
D03*
X772926Y341830D02*
D03*
X1108710Y560070D02*
D03*
X1299210Y662940D02*
D03*
X1296670Y601980D02*
D03*
X1303020Y541020D02*
D03*
X978884Y577310D02*
D03*
X1004570Y563880D02*
D03*
X1074420Y553720D02*
D03*
X969010Y505460D02*
D03*
X1017270Y659130D02*
D03*
X1043940Y506730D02*
D03*
X1070610Y709930D02*
D03*
X1056640Y335280D02*
D03*
X1087120Y420370D02*
D03*
X1018540Y624840D02*
D03*
X904240Y595630D02*
D03*
X1358900Y425450D02*
D03*
X1249680Y723900D02*
D03*
X732790Y645160D02*
D03*
X730250Y722630D02*
D03*
X1213358Y336804D02*
D03*
X1050290Y428244D02*
D03*
D86*
X1391920Y731520D02*
D03*
X554990D02*
D03*
X1391920Y275590D02*
D03*
X558800D02*
D03*
M02*
