G04*
G04 #@! TF.GenerationSoftware,Altium Limited,Altium Designer,25.8.1 (18)*
G04*
G04 Layer_Physical_Order=1*
G04 Layer_Color=255*
%FSLAX44Y44*%
%MOMM*%
G71*
G04*
G04 #@! TF.SameCoordinates,0AA87B99-36C4-491F-804F-3ED42A066D7D*
G04*
G04*
G04 #@! TF.FilePolarity,Positive*
G04*
G01*
G75*
%ADD14C,0.2540*%
%ADD21R,1.3500X1.1000*%
%ADD22R,0.9500X1.3500*%
%ADD23R,1.0000X0.9000*%
%ADD24R,0.5500X1.0500*%
%ADD25R,1.5260X0.6500*%
%ADD26R,2.1500X0.9500*%
%ADD28R,0.9500X1.4000*%
%ADD29R,0.6000X0.8000*%
%ADD30R,0.8000X0.4000*%
%ADD31R,0.6725X0.7154*%
%ADD32R,0.8000X0.9000*%
%ADD33R,1.0000X0.8000*%
%ADD34R,1.1000X1.3500*%
%ADD35R,0.6500X0.7000*%
%ADD36R,0.4000X1.3500*%
%ADD37R,0.6587X0.8121*%
%ADD38R,1.4000X0.9500*%
%ADD39R,2.1500X3.2500*%
%ADD40R,0.8000X0.8000*%
%ADD41R,1.2000X1.2000*%
%ADD42R,0.6000X0.7000*%
%ADD43R,0.4000X0.8000*%
%ADD44R,0.8121X0.6587*%
%ADD45R,1.2000X0.6000*%
%ADD46R,1.0587X1.0121*%
%ADD47R,1.9000X1.9000*%
%ADD48R,1.4500X1.3000*%
%ADD49R,1.6000X1.4000*%
%ADD50R,1.0000X1.8000*%
%ADD51R,0.9000X0.8000*%
%ADD63R,0.6000X0.6000*%
G04:AMPARAMS|DCode=87|XSize=0.28mm|YSize=0.85mm|CornerRadius=0.0504mm|HoleSize=0mm|Usage=FLASHONLY|Rotation=0.000|XOffset=0mm|YOffset=0mm|HoleType=Round|Shape=RoundedRectangle|*
%AMROUNDEDRECTD87*
21,1,0.2800,0.7492,0,0,0.0*
21,1,0.1792,0.8500,0,0,0.0*
1,1,0.1008,0.0896,-0.3746*
1,1,0.1008,-0.0896,-0.3746*
1,1,0.1008,-0.0896,0.3746*
1,1,0.1008,0.0896,0.3746*
%
%ADD87ROUNDEDRECTD87*%
%ADD88R,0.4000X0.4000*%
G04:AMPARAMS|DCode=89|XSize=1.65mm|YSize=2.4mm|CornerRadius=0.0495mm|HoleSize=0mm|Usage=FLASHONLY|Rotation=270.000|XOffset=0mm|YOffset=0mm|HoleType=Round|Shape=RoundedRectangle|*
%AMROUNDEDRECTD89*
21,1,1.6500,2.3010,0,0,270.0*
21,1,1.5510,2.4000,0,0,270.0*
1,1,0.0990,-1.1505,-0.7755*
1,1,0.0990,-1.1505,0.7755*
1,1,0.0990,1.1505,0.7755*
1,1,0.0990,1.1505,-0.7755*
%
%ADD89ROUNDEDRECTD89*%
%ADD90R,0.7000X0.2800*%
G04:AMPARAMS|DCode=91|XSize=1.5mm|YSize=1.5mm|CornerRadius=0.375mm|HoleSize=0mm|Usage=FLASHONLY|Rotation=90.000|XOffset=0mm|YOffset=0mm|HoleType=Round|Shape=RoundedRectangle|*
%AMROUNDEDRECTD91*
21,1,1.5000,0.7500,0,0,90.0*
21,1,0.7500,1.5000,0,0,90.0*
1,1,0.7500,0.3750,0.3750*
1,1,0.7500,0.3750,-0.3750*
1,1,0.7500,-0.3750,-0.3750*
1,1,0.7500,-0.3750,0.3750*
%
%ADD91ROUNDEDRECTD91*%
%ADD92C,1.6000*%
G04:AMPARAMS|DCode=93|XSize=2mm|YSize=2mm|CornerRadius=0.5mm|HoleSize=0mm|Usage=FLASHONLY|Rotation=0.000|XOffset=0mm|YOffset=0mm|HoleType=Round|Shape=RoundedRectangle|*
%AMROUNDEDRECTD93*
21,1,2.0000,1.0000,0,0,0.0*
21,1,1.0000,2.0000,0,0,0.0*
1,1,1.0000,0.5000,-0.5000*
1,1,1.0000,-0.5000,-0.5000*
1,1,1.0000,-0.5000,0.5000*
1,1,1.0000,0.5000,0.5000*
%
%ADD93ROUNDEDRECTD93*%
%ADD94C,2.0000*%
%ADD95R,2.0000X2.0000*%
%ADD96C,1.5000*%
%ADD97C,1.4500*%
%ADD98R,1.5000X1.5000*%
G04:AMPARAMS|DCode=99|XSize=1.95mm|YSize=1.95mm|CornerRadius=0.4875mm|HoleSize=0mm|Usage=FLASHONLY|Rotation=90.000|XOffset=0mm|YOffset=0mm|HoleType=Round|Shape=RoundedRectangle|*
%AMROUNDEDRECTD99*
21,1,1.9500,0.9750,0,0,90.0*
21,1,0.9750,1.9500,0,0,90.0*
1,1,0.9750,0.4875,0.4875*
1,1,0.9750,0.4875,-0.4875*
1,1,0.9750,-0.4875,-0.4875*
1,1,0.9750,-0.4875,0.4875*
%
%ADD99ROUNDEDRECTD99*%
%ADD100C,1.9500*%
%ADD101C,2.8000*%
%ADD102R,1.4500X1.4500*%
G04:AMPARAMS|DCode=103|XSize=1.6mm|YSize=1.6mm|CornerRadius=0.4mm|HoleSize=0mm|Usage=FLASHONLY|Rotation=270.000|XOffset=0mm|YOffset=0mm|HoleType=Round|Shape=RoundedRectangle|*
%AMROUNDEDRECTD103*
21,1,1.6000,0.8000,0,0,270.0*
21,1,0.8000,1.6000,0,0,270.0*
1,1,0.8000,-0.4000,-0.4000*
1,1,0.8000,-0.4000,0.4000*
1,1,0.8000,0.4000,0.4000*
1,1,0.8000,0.4000,-0.4000*
%
%ADD103ROUNDEDRECTD103*%
%ADD104C,1.2700*%
%ADD105C,2.5400*%
G36*
X968070Y340030D02*
X980070D01*
Y334030D01*
X974070Y328030D01*
X968070D01*
Y340030D01*
D02*
G37*
D14*
X1356360Y381000D02*
Y398101D01*
X1027570Y308030D02*
X1066546D01*
X1164518D01*
X1066546D02*
Y407416D01*
X1164518Y308030D02*
X1216152Y359664D01*
X1139698Y283210D02*
X1164518Y308030D01*
X1327150Y595630D02*
X1339850Y608330D01*
X1321562Y595630D02*
X1327150D01*
X1250442Y459232D02*
X1250950Y459740D01*
X1250442Y524510D02*
X1321562Y595630D01*
X1232154Y506222D02*
X1250442Y524510D01*
X1187210Y506222D02*
X1232154D01*
X1187210Y504190D02*
Y506222D01*
X1284630Y437134D02*
Y438450D01*
X1251930Y437134D02*
X1284630D01*
X1269746Y359664D02*
X1352550Y276860D01*
X1256050Y425480D02*
X1257300D01*
X1216152Y359664D02*
X1269746D01*
X1250442Y438622D02*
X1251930Y437134D01*
X1250442Y438622D02*
Y459232D01*
X1246160Y434340D02*
X1250442Y438622D01*
X1228540Y434340D02*
X1247190D01*
X1256050Y425480D01*
X1130300Y572770D02*
X1131570Y571500D01*
X1083640Y572770D02*
X1130300D01*
X1038790Y692150D02*
X1059180D01*
X1036110Y694830D02*
X1038790Y692150D01*
X1080610Y575800D02*
X1083640Y572770D01*
X1066546Y407416D02*
X1081024D01*
X1096010Y283210D02*
X1139698D01*
X1084270Y401780D02*
X1086000Y400050D01*
X1084270Y401780D02*
Y404170D01*
X1081024Y407416D02*
X1084270Y404170D01*
X1256216Y490220D02*
X1357376D01*
X1206500Y467360D02*
X1238931Y499791D01*
X1277620D02*
X1303466D01*
X1238931D02*
X1277620D01*
X1303466D02*
X1310894Y507220D01*
X1352550D01*
X1150870Y453390D02*
X1169920Y434340D01*
X1174300D01*
X1150870Y453390D02*
Y462030D01*
X1149350Y463550D02*
X1150870Y462030D01*
X1206500Y464820D02*
Y467360D01*
X1086000Y472440D02*
X1109758D01*
X1122680Y485362D01*
X1206500Y440504D02*
X1256216Y490220D01*
X1303630Y435356D02*
X1352641D01*
X1303630D02*
Y438450D01*
X1352641Y435356D02*
X1354438Y433560D01*
X1285494Y450596D02*
X1294130Y441960D01*
X1269492Y450596D02*
X1285494D01*
X1354438Y432662D02*
X1358900Y428199D01*
X1354438Y432662D02*
Y433560D01*
X1358900Y423782D02*
Y428199D01*
X1294130Y434950D02*
Y441960D01*
X1303630Y412450D02*
Y425450D01*
X1294130Y434950D02*
X1303630Y425450D01*
X1172210Y488950D02*
X1185418Y475742D01*
X1172210Y504190D02*
Y548640D01*
Y488950D02*
Y504190D01*
Y548640D02*
X1184148Y560578D01*
X1254760Y408940D02*
X1257300Y411480D01*
X1228540Y408940D02*
X1254760D01*
X591100Y404078D02*
Y494030D01*
X591820Y305920D02*
Y417830D01*
X865858Y367530D02*
X887570D01*
X863600Y369788D02*
X865858Y367530D01*
X863600Y369788D02*
Y380782D01*
X862112Y382270D02*
X863600Y380782D01*
X828040Y382270D02*
X862112D01*
X816610Y393700D02*
X828040Y382270D01*
X816610Y393700D02*
Y440690D01*
X814070Y443230D02*
X816610Y440690D01*
X617220Y443230D02*
X814070D01*
X823870Y366120D02*
X845300D01*
X811530Y378460D02*
X823870Y366120D01*
X800128Y369542D02*
Y413992D01*
X814320Y355350D02*
X856178D01*
X800128Y369542D02*
X814320Y355350D01*
X887460Y375920D02*
X887570Y376030D01*
X872708Y375920D02*
X887460D01*
X871220Y377408D02*
X872708Y375920D01*
X871220Y377408D02*
Y389672D01*
X869732Y391160D02*
X871220Y389672D01*
X831850Y391160D02*
X869732D01*
X822960Y400050D02*
X831850Y391160D01*
X822960Y400050D02*
Y453172D01*
X821472Y454660D02*
X822960Y453172D01*
X879338Y384530D02*
X887570D01*
X877570Y386298D02*
Y394970D01*
Y386298D02*
X879338Y384530D01*
X833131Y397510D02*
X875030D01*
X830580Y400061D02*
X833131Y397510D01*
X830580Y400061D02*
Y463332D01*
X662940Y464820D02*
X829092D01*
X830580Y463332D01*
X875030Y397510D02*
X877570Y394970D01*
X654050Y454660D02*
X821472D01*
X640080Y468630D02*
X654050Y454660D01*
X617220Y468630D02*
X640080D01*
X633730Y494030D02*
X662196Y465564D01*
X662940Y464820D01*
X617220Y494030D02*
X633730D01*
X609600Y536194D02*
X670814Y474980D01*
X923290D01*
X939825Y491515D01*
X609600Y536194D02*
Y571500D01*
X787400Y426720D02*
X800128Y413992D01*
X714412Y426720D02*
X787400D01*
X705522Y417830D02*
X714412Y426720D01*
X859857Y359030D02*
X887570D01*
X856178Y355350D02*
X859857Y359030D01*
X617220Y417830D02*
X705522D01*
X591100Y404078D02*
X592588Y402590D01*
X895831Y298450D02*
Y304800D01*
X709930Y402590D02*
X771770D01*
X591100Y494750D02*
X591820Y494030D01*
X895831Y298450D02*
X983070D01*
X887017Y307477D02*
X887570Y308030D01*
X983070Y298450D02*
X1027570D01*
Y280530D02*
Y291030D01*
X893240Y307391D02*
X895831Y304800D01*
X888208Y307391D02*
X893240D01*
X771770Y402590D02*
X780300Y411120D01*
X838200Y439420D02*
X867590Y410030D01*
X838200Y453390D02*
X851375Y466565D01*
X838200Y439420D02*
Y453390D01*
X867590Y410030D02*
X887570D01*
X849630Y447040D02*
X876140Y420530D01*
X851375Y466565D02*
X866205D01*
X709930Y402590D02*
X710590Y401930D01*
Y379570D02*
Y401930D01*
X592588Y402590D02*
X709930D01*
X735186Y379570D02*
X742950Y371806D01*
X729590Y379570D02*
X735186D01*
X742950Y371806D02*
X742950D01*
X772926Y341830D01*
X720090Y356870D02*
X722630Y359410D01*
X720090Y347472D02*
Y356870D01*
X701040Y328422D02*
X720090Y347472D01*
X668020Y292340D02*
X669020D01*
X683800Y277560D01*
X722060D01*
X735330Y290830D01*
X667020Y307340D02*
X668020D01*
X660110Y314250D02*
X667020Y307340D01*
X618490Y314250D02*
X660110D01*
X591100Y494750D02*
Y576326D01*
X618490Y279250D02*
X634850Y262890D01*
X869930D02*
X887570Y280530D01*
X634850Y262890D02*
X869930D01*
X845300Y322220D02*
X847328D01*
X853018Y316530D01*
X887570D01*
X780300Y366120D02*
X855391Y291030D01*
X591820Y305920D02*
X618490Y279250D01*
X1341120Y313690D02*
Y361950D01*
X1027570Y291030D02*
Y298450D01*
X978110Y672986D02*
X1034954D01*
X1027570Y298450D02*
Y299530D01*
X1150794Y476853D02*
X1167289D01*
X1086168Y494982D02*
X1132665D01*
X1167289Y476853D02*
X1185418Y458724D01*
X1132665Y494982D02*
X1150794Y476853D01*
X1078484Y502666D02*
X1086168Y494982D01*
X1277366Y604266D02*
X1292225Y619125D01*
X1275878Y560578D02*
X1277366Y562066D01*
Y604266D01*
X1065276Y515331D02*
X1078484D01*
X1027570Y470040D02*
X1065276Y507746D01*
Y515331D01*
X1194864Y395267D02*
Y420152D01*
X1182878Y421640D02*
X1193376D01*
X1194864Y420152D01*
Y395267D02*
X1195975Y394155D01*
X1219390Y408940D02*
X1228540D01*
X1219390Y394155D02*
Y408940D01*
X1178960Y374171D02*
X1195975Y394155D01*
X1219390D01*
X1175741Y370390D02*
X1178960Y374171D01*
X1027570Y283210D02*
X1077510D01*
X1259969Y369020D02*
X1294130Y403181D01*
X1233170Y369020D02*
X1259969D01*
X1294130Y403181D02*
X1351280D01*
X1324520Y722940D02*
X1324770D01*
X1322540Y724920D02*
X1324520Y722940D01*
X1324770D02*
X1330668Y717042D01*
X1322540Y724920D02*
Y725170D01*
X1337747Y717042D02*
X1352804Y701985D01*
Y597591D02*
Y701985D01*
X1322540Y697700D02*
Y724920D01*
X1330668Y717042D02*
X1337747D01*
X1316990Y692150D02*
X1322540Y697700D01*
X1316990Y688340D02*
Y692150D01*
X1242060Y687070D02*
X1243330Y688340D01*
X1316990D01*
X1316050Y640700D02*
X1319530Y644180D01*
Y646430D01*
X1313800Y640700D02*
X1316050D01*
X1339300Y584087D02*
X1352804Y597591D01*
X1292225Y619125D02*
X1313800Y640700D01*
X1339300Y575310D02*
Y584087D01*
X1242060Y669290D02*
X1292225Y619125D01*
X1242060Y669290D02*
Y687070D01*
X1172210Y617220D02*
X1242060Y687070D01*
X1184148Y560578D02*
X1275878D01*
X1185418Y458724D02*
Y475742D01*
X1122950Y687340D02*
Y703500D01*
X1129450D01*
X1115060Y679450D02*
X1122950Y687340D01*
X1034954Y672986D02*
X1036110Y671830D01*
X1060610Y605300D02*
Y611922D01*
X1059122Y613410D02*
X1060610Y611922D01*
Y602450D02*
Y605300D01*
X1060480Y602320D02*
X1060610Y602450D01*
X1078484Y502666D02*
Y515331D01*
X1351280Y403181D02*
X1356360Y398101D01*
X1294130Y403181D02*
Y412450D01*
X1219390Y373380D02*
Y394155D01*
X1344513Y369153D02*
X1356360Y381000D01*
X1344513Y361950D02*
Y369153D01*
X1341120Y361950D02*
X1344513D01*
X1341120Y313690D02*
X1352550Y302260D01*
X1219390Y373380D02*
X1223750Y369020D01*
X1233170D01*
X1192530Y269240D02*
X1216660Y293370D01*
X1182878Y421640D02*
X1185418Y424180D01*
Y458724D01*
X1174300Y421640D02*
X1182878D01*
X1027570Y420530D02*
Y470040D01*
X1077510Y274320D02*
X1082590Y269240D01*
X1192530D01*
X1077510Y274320D02*
Y283210D01*
X978110Y671830D02*
Y672986D01*
X916089Y671830D02*
X978110D01*
Y646640D02*
X1011340Y613410D01*
X1059122D01*
X978110Y646640D02*
Y671830D01*
X911098Y676821D02*
X916089Y671830D01*
X837411Y676821D02*
X911098D01*
X957570Y367030D02*
X974070D01*
X941070D02*
X957570D01*
Y350530D02*
X974070D01*
X876140Y420530D02*
X887570D01*
X608330Y650240D02*
X609600Y651510D01*
X608330Y684530D02*
X609600Y683260D01*
Y651510D02*
Y683260D01*
X793040Y632450D02*
X837411Y676821D01*
X608330Y650240D02*
X609600Y610870D01*
X600961Y691899D02*
X608330Y684530D01*
X579882Y587544D02*
Y691899D01*
X600961D01*
X579882Y587544D02*
X591100Y576326D01*
X983070Y298450D02*
Y308530D01*
X974070Y334030D02*
Y350530D01*
X983070Y280530D02*
Y298450D01*
X957570Y334030D02*
X974070D01*
X941070Y350530D02*
X957570Y334030D01*
X941070D02*
X957570D01*
X983070Y308530D01*
X1008570Y280530D02*
X1017070D01*
X1027570D01*
X991570D02*
X1000070D01*
X1008570D01*
X966070D02*
X974570D01*
X983070D01*
X949070D02*
X957570D01*
X966070D01*
X983070D02*
X991570D01*
X941070Y350530D02*
Y367030D01*
X888300Y317260D02*
X891300D01*
X941070Y367030D01*
X887570Y308030D02*
Y316530D01*
X888300Y317260D01*
X932070Y280530D02*
X940570D01*
X949070D01*
X915070D02*
X923570D01*
X932070D01*
X898070D02*
X906570D01*
X915070D01*
X887570D02*
X898070D01*
X911860Y355695D02*
Y369570D01*
X889570Y333530D02*
X892800Y336760D01*
X892924D01*
X911860Y355695D01*
X887570Y333530D02*
X889570D01*
X862470Y342760D02*
X886840D01*
X861060Y344170D02*
X862470Y342760D01*
X886840D02*
X887570Y342030D01*
X1097026Y418449D02*
X1109440Y406035D01*
X1099820Y400259D02*
Y402050D01*
X1092245Y392684D02*
X1099820Y400259D01*
X1091420Y372908D02*
X1109440Y390927D01*
X1097026Y418449D02*
Y447040D01*
X1109440Y390927D02*
Y406035D01*
X1073000Y392684D02*
X1092245D01*
X1000760Y476250D02*
X1002030Y477520D01*
X976630Y476250D02*
X1000760D01*
X976630Y475017D02*
Y476250D01*
Y445780D02*
Y475017D01*
X957570Y426720D02*
X976630Y445780D01*
X957570Y420530D02*
Y426720D01*
X949070Y431622D02*
X955090Y437642D01*
X949070Y420530D02*
Y431622D01*
X955090Y437642D02*
Y476250D01*
X701040Y291234D02*
Y328422D01*
X1009859Y313690D02*
X1012699Y316530D01*
X1027570D01*
X1007110Y313690D02*
X1009859D01*
X652780Y588010D02*
X673100Y567690D01*
X881380D02*
X923290Y525780D01*
X673100Y567690D02*
X881380D01*
X923290Y525780D02*
X1026160D01*
X602530Y588010D02*
X652780D01*
X591100Y599440D02*
X602530Y588010D01*
X591100Y599440D02*
Y610870D01*
X589830Y612140D02*
X591100Y610870D01*
X589830Y612140D02*
Y650240D01*
X1085414Y508000D02*
X1133252D01*
X1146810Y494442D01*
X1180338Y576580D02*
X1263650D01*
X1137920Y534162D02*
X1180338Y576580D01*
X895946Y505073D02*
Y527724D01*
X878840Y544830D02*
X895946Y527724D01*
X840219Y544830D02*
X878840D01*
X817359Y521970D02*
X840219Y544830D01*
X919140Y465750D02*
X927581D01*
X897294Y463416D02*
X903570D01*
X895350Y465360D02*
X897294Y463416D01*
X927581Y465750D02*
X929300Y467468D01*
X866205Y466565D02*
X867410Y465360D01*
X915070Y461680D02*
X919140Y465750D01*
X903570Y463416D02*
X906570Y460416D01*
Y420530D02*
Y460416D01*
X915070Y420530D02*
Y461680D01*
X806450Y581850D02*
X806640Y581660D01*
X747522Y610362D02*
X785654Y572230D01*
X883698D01*
X890523Y565405D01*
X806640Y581660D02*
X880688D01*
X981710Y539750D02*
X1004570Y562610D01*
X981710Y538480D02*
Y539750D01*
X1007110Y541020D02*
X1024890D01*
X1004570Y562610D02*
Y563880D01*
X1130082Y347980D02*
X1131570Y349468D01*
X1088890Y347980D02*
X1130082D01*
X1074920Y361950D02*
X1088890Y347980D01*
X1074420Y361950D02*
X1074920D01*
X1131570Y349468D02*
Y448310D01*
X1133058Y356220D02*
X1173480D01*
X1131570Y357708D02*
X1133058Y356220D01*
X1075690Y490220D02*
Y492969D01*
X1071880Y496779D02*
X1075690Y492969D01*
X1071880Y496779D02*
Y508000D01*
X1079530Y464535D02*
X1097026Y447040D01*
X1079530Y464535D02*
Y480253D01*
X1062038Y480346D02*
X1079437D01*
X1079530Y480253D01*
X1059212Y455748D02*
Y477520D01*
X1062038Y480346D01*
X1221994Y421640D02*
X1228540D01*
X1209294Y408940D02*
X1221994Y421640D01*
X1206500Y426720D02*
Y440504D01*
X1060640Y351634D02*
Y412178D01*
X1056640Y335280D02*
Y347634D01*
X1060640Y351634D01*
Y412178D02*
X1079500Y431038D01*
X1028300Y334260D02*
X1030300D01*
X1027570Y333530D02*
X1028300Y334260D01*
X1299210Y388620D02*
X1342359D01*
X1287780Y377190D02*
X1299210Y388620D01*
X1272230Y400050D02*
X1284630Y412450D01*
X938571Y579225D02*
X943905Y573890D01*
X938571Y579225D02*
Y612099D01*
X945030Y573890D02*
X946760Y572160D01*
X949760D01*
X943905Y573890D02*
X945030D01*
X933450Y617220D02*
X938571Y612099D01*
X901700Y496570D02*
Y499319D01*
X895946Y505073D02*
X901700Y499319D01*
X751046Y629666D02*
X763492Y617220D01*
X826770D01*
X713958Y629666D02*
X751046D01*
X826770Y617220D02*
X933450D01*
X815340Y605790D02*
X826770Y617220D01*
X683506Y704350D02*
Y722630D01*
Y704350D02*
X712470Y675386D01*
Y631154D02*
X713958Y629666D01*
X712470Y631154D02*
Y675386D01*
X792480Y521970D02*
X817359D01*
X1075740Y570691D02*
X1086361Y560070D01*
X1108710D01*
X1075610Y575800D02*
X1075740Y575670D01*
Y570691D02*
Y575670D01*
X1338030Y662940D02*
Y667258D01*
X1299210Y662940D02*
X1338030D01*
Y646430D02*
Y662940D01*
X1335490Y669798D02*
X1338030Y667258D01*
X1335490Y669798D02*
Y688340D01*
X1304688Y608330D02*
X1321850D01*
X1298338Y601980D02*
X1304688Y608330D01*
X1296670Y601980D02*
X1298338D01*
X855391Y291030D02*
X887570D01*
X1320260Y558260D02*
Y574770D01*
X1303020Y541020D02*
X1320260Y558260D01*
Y574770D02*
X1320800Y575310D01*
X963930Y515620D02*
X1029605D01*
X1048147Y534162D01*
X939825Y491515D02*
X963930Y515620D01*
X1048147Y534162D02*
X1137920D01*
X939825Y491515D02*
X955090Y476250D01*
X1027528Y342072D02*
X1027570Y342030D01*
X978884Y577310D02*
X980372D01*
X985452Y582390D02*
X1054020D01*
X980372Y577310D02*
X985452Y582390D01*
X1057779Y578632D02*
X1060480D01*
X1054020Y582390D02*
X1057779Y578632D01*
X1060610Y575800D02*
Y578502D01*
X1060480Y578632D02*
X1060610Y578502D01*
X1135950Y679704D02*
Y703500D01*
X1080610Y605300D02*
Y624364D01*
X1135950Y679704D01*
X1070610Y560279D02*
Y575800D01*
X1074420Y553720D02*
Y556469D01*
X1070610Y560279D02*
X1074420Y556469D01*
X969010Y502937D02*
Y505460D01*
X955857Y489784D02*
X969010Y502937D01*
X955090Y489784D02*
X955857D01*
X1137920Y716026D02*
X1142450Y711496D01*
Y703500D02*
Y711496D01*
X1092454Y716026D02*
X1137920D01*
X1092454Y656924D02*
Y716026D01*
X1075610Y640080D02*
X1092454Y656924D01*
X1075610Y605300D02*
Y640080D01*
Y603250D02*
Y605300D01*
X1065280Y603446D02*
X1065610Y603115D01*
X1048640Y659551D02*
X1065280Y642911D01*
X1065610Y602070D02*
Y603115D01*
X1065280Y603446D02*
Y642911D01*
X1017270Y659130D02*
X1017691Y659551D01*
X1048640D01*
X976630Y489784D02*
X1026994D01*
X1043940Y506730D01*
X1024890Y541020D02*
X1043260Y559390D01*
X1062310D01*
X1065610Y562690D02*
Y574040D01*
X1062310Y559390D02*
X1065610Y562690D01*
X1070610Y605300D02*
Y709930D01*
X1086560Y420930D02*
X1087120Y420370D01*
X1086560Y420930D02*
Y436320D01*
X1086000Y436880D02*
X1086560Y436320D01*
X1079500Y431038D02*
Y443080D01*
X1073000Y449580D02*
X1079500Y443080D01*
X1073000Y392684D02*
Y400050D01*
X1091420Y361950D02*
Y372908D01*
X1371600Y346710D02*
Y702310D01*
X1352550Y327660D02*
X1371600Y346710D01*
X1348740Y725170D02*
X1371600Y702310D01*
X746760Y619252D02*
X769842Y596170D01*
X819761D02*
X829380Y605790D01*
X769842Y596170D02*
X819761D01*
X829380Y605790D02*
X917956D01*
X925322Y598424D02*
X932543D01*
X934031Y584674D02*
Y596936D01*
X917956Y605790D02*
X925322Y598424D01*
X932543D02*
X934031Y596936D01*
X706882Y619252D02*
X746760D01*
X693928Y610362D02*
X747522D01*
X1018540Y624840D02*
X1026630Y632930D01*
Y645350D01*
X890523Y565405D02*
X961172D01*
Y581660D02*
X962660Y580172D01*
Y566893D02*
Y580172D01*
X961172Y565405D02*
X962660Y566893D01*
X949760Y581660D02*
X961172D01*
X904240Y595630D02*
X905875D01*
X915490Y586014D01*
X1026630Y645350D02*
X1030110Y648830D01*
X1036110D01*
X890189Y572160D02*
X921760D01*
X880688Y581660D02*
X890189Y572160D01*
X1336040Y725170D02*
X1348740D01*
X1336040D02*
Y733842D01*
X1365250Y380329D02*
Y417432D01*
X1358900Y423782D02*
X1365250Y417432D01*
X1358047Y373126D02*
X1365250Y380329D01*
X1329472Y740410D02*
X1336040Y733842D01*
X1266190Y740410D02*
X1329472D01*
X1249680Y723900D02*
X1266190Y740410D01*
X921760Y572160D02*
X924760D01*
X932543Y583186D02*
X934031Y584674D01*
X926286Y583186D02*
X932543D01*
X924760Y581660D02*
X926286Y583186D01*
X732790Y645160D02*
Y678688D01*
X701040Y710438D02*
X732790Y678688D01*
X684040Y620250D02*
Y665480D01*
Y620250D02*
X693928Y610362D01*
X949669Y591160D02*
Y614971D01*
X932190Y632450D02*
X949669Y614971D01*
X863040Y632450D02*
X932190D01*
X918906Y589430D02*
X923030D01*
X918530Y575390D02*
X921760Y572160D01*
X917406Y575390D02*
X918530D01*
X915490Y577306D02*
Y586014D01*
Y577306D02*
X917406Y575390D01*
X923030Y589430D02*
X924760Y591160D01*
X915490Y586014D02*
X918906Y589430D01*
X701040Y722630D02*
X730250D01*
X600310Y641886D02*
Y658595D01*
Y641886D02*
X600456Y641740D01*
X586330Y684530D02*
X600456Y670404D01*
Y658740D02*
Y670404D01*
X600310Y658595D02*
X600456Y658740D01*
Y600456D02*
Y641740D01*
X589438Y746760D02*
X1182660D01*
X587950Y745272D02*
X589438Y746760D01*
X587950Y723900D02*
Y745272D01*
X1182660Y746760D02*
X1184148Y745272D01*
Y721360D02*
Y745272D01*
X701040Y710438D02*
Y722630D01*
X1358047Y361950D02*
Y373126D01*
X600456Y600456D02*
X617728D01*
Y689610D01*
X587950Y719388D02*
X617728Y689610D01*
X587950Y719388D02*
Y723900D01*
X1178814Y716026D02*
X1184148Y721360D01*
X1153160Y716026D02*
X1178814D01*
X1148950Y711816D02*
X1153160Y716026D01*
X1148950Y703500D02*
Y711816D01*
X701040Y722630D02*
Y729996D01*
X695960Y735076D02*
X701040Y729996D01*
X615950Y735076D02*
X695960D01*
X615950Y723900D02*
Y735076D01*
X1213358Y336804D02*
Y350266D01*
X1213612Y350520D01*
X1233170D01*
X701040Y625094D02*
Y665480D01*
Y625094D02*
X706882Y619252D01*
X1073000Y449580D02*
Y472440D01*
Y432784D02*
Y436880D01*
X1068460Y428244D02*
X1073000Y432784D01*
X1050290Y428244D02*
X1068460D01*
X1073000Y436880D02*
Y441960D01*
X1059212Y455748D02*
X1073000Y441960D01*
D21*
X1257300Y425480D02*
D03*
Y411480D02*
D03*
X1173480Y370220D02*
D03*
Y356220D02*
D03*
D22*
X1187210Y504190D02*
D03*
X1172210D02*
D03*
D23*
X1339850Y608330D02*
D03*
X1321850D02*
D03*
D24*
X1284630Y438450D02*
D03*
X1303630D02*
D03*
Y412450D02*
D03*
X1284630D02*
D03*
X1294130D02*
D03*
D25*
X1228540Y434340D02*
D03*
X1174300D02*
D03*
X1228540Y408940D02*
D03*
X1174300Y421640D02*
D03*
Y447040D02*
D03*
Y408940D02*
D03*
X1228540Y447040D02*
D03*
Y421640D02*
D03*
D26*
X1036110Y694830D02*
D03*
Y671830D02*
D03*
Y648830D02*
D03*
D28*
X1096010Y283210D02*
D03*
X1316990Y688340D02*
D03*
X1319530Y646430D02*
D03*
X1339300Y575310D02*
D03*
X1077510Y283210D02*
D03*
X609600Y610870D02*
D03*
X608330Y650240D02*
D03*
X591100Y571500D02*
D03*
Y610870D02*
D03*
X589830Y650240D02*
D03*
X1335490Y688340D02*
D03*
X1338030Y646430D02*
D03*
X1320800Y575310D02*
D03*
X609600Y571500D02*
D03*
D29*
X1086000Y400050D02*
D03*
Y472440D02*
D03*
X1073000Y400050D02*
D03*
Y472440D02*
D03*
Y436880D02*
D03*
X1086000D02*
D03*
D30*
X1027570Y308030D02*
D03*
X887570Y384530D02*
D03*
Y367530D02*
D03*
Y376030D02*
D03*
Y359030D02*
D03*
X1027570Y299530D02*
D03*
Y291030D02*
D03*
X887570Y316530D02*
D03*
Y308030D02*
D03*
Y291030D02*
D03*
Y299530D02*
D03*
Y325030D02*
D03*
Y342030D02*
D03*
Y350530D02*
D03*
Y393030D02*
D03*
Y401530D02*
D03*
Y410030D02*
D03*
X1027570D02*
D03*
Y401530D02*
D03*
Y393030D02*
D03*
Y384530D02*
D03*
Y376030D02*
D03*
Y367530D02*
D03*
Y359030D02*
D03*
Y350530D02*
D03*
Y342030D02*
D03*
Y333530D02*
D03*
Y325030D02*
D03*
Y316530D02*
D03*
X887570Y333530D02*
D03*
D31*
X1277620Y499791D02*
D03*
Y490220D02*
D03*
D32*
X1352550Y507220D02*
D03*
Y490220D02*
D03*
D33*
X668020Y292340D02*
D03*
Y307340D02*
D03*
D34*
X1353820Y388620D02*
D03*
X1339820D02*
D03*
D35*
X1322540Y725170D02*
D03*
X1336040D02*
D03*
D36*
X1129450Y703500D02*
D03*
X1122950D02*
D03*
X1135950D02*
D03*
X1142450D02*
D03*
X1148950D02*
D03*
D37*
X1344513Y361950D02*
D03*
X1358047D02*
D03*
X1085414Y508000D02*
D03*
X1071880D02*
D03*
D38*
X1233170Y369020D02*
D03*
Y350520D02*
D03*
D39*
X978110Y671830D02*
D03*
D40*
X1027570Y420530D02*
D03*
X887570D02*
D03*
X1027570Y280530D02*
D03*
X887570D02*
D03*
D41*
X974070Y367030D02*
D03*
X941070D02*
D03*
X957570D02*
D03*
X974070Y350530D02*
D03*
X957570D02*
D03*
Y334030D02*
D03*
X941070Y350530D02*
D03*
Y334030D02*
D03*
D42*
X710590Y379570D02*
D03*
X729590D02*
D03*
X720090Y359570D02*
D03*
D43*
X966070Y280530D02*
D03*
X957570D02*
D03*
X1017070D02*
D03*
X1000070D02*
D03*
X1008570D02*
D03*
X991570D02*
D03*
X974570D02*
D03*
X983070D02*
D03*
X940570D02*
D03*
X949070D02*
D03*
X923570D02*
D03*
X932070D02*
D03*
X906570D02*
D03*
X915070D02*
D03*
X898070D02*
D03*
Y420530D02*
D03*
X906570D02*
D03*
X915070D02*
D03*
X923570D02*
D03*
X932070D02*
D03*
X940570D02*
D03*
X949070D02*
D03*
X957570D02*
D03*
X966070D02*
D03*
X974570D02*
D03*
X983070D02*
D03*
X991570D02*
D03*
X1000070D02*
D03*
X1008570D02*
D03*
X1017070D02*
D03*
D44*
X976630Y476250D02*
D03*
X955090Y489784D02*
D03*
Y476250D02*
D03*
X976630Y489784D02*
D03*
D45*
X949760Y572160D02*
D03*
Y591160D02*
D03*
Y581660D02*
D03*
X924760D02*
D03*
Y572160D02*
D03*
Y591160D02*
D03*
D46*
X683506Y722630D02*
D03*
X701040D02*
D03*
D47*
X1123950Y730250D02*
D03*
X1147950D02*
D03*
D48*
X1101700D02*
D03*
X1170200D02*
D03*
D49*
X1103950Y705750D02*
D03*
X1167950D02*
D03*
D50*
X587950Y723900D02*
D03*
X615950D02*
D03*
D51*
X701040Y665480D02*
D03*
X684040D02*
D03*
X1074420Y361950D02*
D03*
X1091420D02*
D03*
D63*
X608330Y684530D02*
D03*
X586330D02*
D03*
D87*
X1080610Y575800D02*
D03*
X1060610Y605300D02*
D03*
X1075610Y575800D02*
D03*
X1060610D02*
D03*
X1080610Y605300D02*
D03*
X1075610D02*
D03*
X1070610D02*
D03*
X1065610D02*
D03*
Y575800D02*
D03*
X1070610D02*
D03*
D88*
X974070Y334030D02*
D03*
D89*
X1070610Y590550D02*
D03*
D90*
X1086109Y593091D02*
D03*
Y588090D02*
D03*
X1055109D02*
D03*
Y593091D02*
D03*
D91*
X1172210Y637220D02*
D03*
X848360Y526730D02*
D03*
D92*
X1352550Y276860D02*
D03*
Y302260D02*
D03*
D93*
X700330Y290830D02*
D03*
X1216660Y293370D02*
D03*
D94*
X735330Y290830D02*
D03*
X591820Y494030D02*
D03*
Y468630D02*
D03*
Y443230D02*
D03*
Y417830D02*
D03*
X617220Y494030D02*
D03*
Y468630D02*
D03*
Y443230D02*
D03*
X1251660Y293370D02*
D03*
D95*
X617220Y417830D02*
D03*
D96*
X1172210Y617220D02*
D03*
X848360Y506730D02*
D03*
X845300Y322220D02*
D03*
X780300Y366120D02*
D03*
X845300D02*
D03*
Y411120D02*
D03*
X780300Y277220D02*
D03*
Y322220D02*
D03*
D97*
X793040Y632450D02*
D03*
X838040D02*
D03*
X818040D02*
D03*
D98*
X780300Y411120D02*
D03*
X845300Y277220D02*
D03*
D99*
X618490Y279250D02*
D03*
D100*
Y314250D02*
D03*
Y349250D02*
D03*
D101*
X762340Y659550D02*
D03*
X893740D02*
D03*
D102*
X863040Y632450D02*
D03*
D103*
X1352550Y327660D02*
D03*
D104*
X1250442Y524510D02*
D03*
X1250950Y459740D02*
D03*
X1131570Y571500D02*
D03*
X1059180Y692150D02*
D03*
X1149350Y463550D02*
D03*
X1206500Y464820D02*
D03*
X1122680Y485362D02*
D03*
X1269492Y450596D02*
D03*
X811530Y378460D02*
D03*
X849630Y447040D02*
D03*
X1115060Y679450D02*
D03*
X978110Y646640D02*
D03*
X911860Y369570D02*
D03*
X861060Y344170D02*
D03*
X1099820Y402050D02*
D03*
X1002030Y477520D02*
D03*
X1007110Y313690D02*
D03*
X1026160Y525780D02*
D03*
X1146810Y494442D02*
D03*
X1263650Y576580D02*
D03*
X867410Y465360D02*
D03*
X929300Y467468D02*
D03*
X895350Y465360D02*
D03*
X806450Y581850D02*
D03*
X981710Y538480D02*
D03*
X1007110Y541020D02*
D03*
X1131570Y448310D02*
D03*
X1075690Y490220D02*
D03*
X1206500Y426720D02*
D03*
X1209294Y408940D02*
D03*
X1287780Y377190D02*
D03*
X1272230Y400050D02*
D03*
X901700Y496570D02*
D03*
X815340Y605790D02*
D03*
X792480Y521970D02*
D03*
X772926Y341830D02*
D03*
X1108710Y560070D02*
D03*
X1299210Y662940D02*
D03*
X1296670Y601980D02*
D03*
X1303020Y541020D02*
D03*
X978884Y577310D02*
D03*
X1004570Y563880D02*
D03*
X1074420Y553720D02*
D03*
X969010Y505460D02*
D03*
X1017270Y659130D02*
D03*
X1043940Y506730D02*
D03*
X1070610Y709930D02*
D03*
X1056640Y335280D02*
D03*
X1087120Y420370D02*
D03*
X1018540Y624840D02*
D03*
X904240Y595630D02*
D03*
X1358900Y425450D02*
D03*
X1249680Y723900D02*
D03*
X732790Y645160D02*
D03*
X730250Y722630D02*
D03*
X1213358Y336804D02*
D03*
X1050290Y428244D02*
D03*
D105*
X1391920Y731520D02*
D03*
X554990D02*
D03*
X1391920Y275590D02*
D03*
X558800D02*
D03*
M02*
